<svg xmlns="http://www.w3.org/2000/svg" version="1.1" xmlns:xlink="http://www.w3.org/1999/xlink" xmlns:svgjs="http://svgjs.dev/svgjs" viewBox="0 0 1422 800" width="1422" height="800"><g transform="scale(1) rotate(0) translate(0 0) skewX(0) skewY(0)" transform-origin="711 400"><rect width="2844" height="1600" x="-711" y="-400" fill="url(#rrreplicate-pattern1)"></rect><rect width="2844" height="1600" x="-711" y="-400" fill="url(#rrreplicate-pattern2)"></rect></g><defs><pattern id="rrreplicate-pattern1" width="260" height="260" patternUnits="userSpaceOnUse" patternTransform="rotate(180)" stroke-width="0.8" fill="none" stroke="#5a5f77" stroke-opacity="0.3">
      <line x1="16.25" y1="0" x2="16.25" y2="260"></line><line x1="48.75" y1="0" x2="48.75" y2="260"></line><line x1="81.25" y1="0" x2="81.25" y2="260"></line><line x1="113.75" y1="0" x2="113.75" y2="260"></line><line x1="146.25" y1="0" x2="146.25" y2="260"></line><line x1="178.75" y1="0" x2="178.75" y2="260"></line><line x1="211.25" y1="0" x2="211.25" y2="260"></line><line x1="243.75" y1="0" x2="243.75" y2="260"></line>
      </pattern><pattern id="rrreplicate-pattern2" width="260" height="260" patternUnits="userSpaceOnUse" patternTransform="rotate(90)" stroke-opacity="0.34" stroke-width="0.8" fill="none" stroke="#5A5F77">
      <line x1="14.444444444444445" y1="0" x2="14.444444444444445" y2="260"></line><line x1="43.333333333333336" y1="0" x2="43.333333333333336" y2="260"></line><line x1="72.22222222222223" y1="0" x2="72.22222222222223" y2="260"></line><line x1="101.11111111111111" y1="0" x2="101.11111111111111" y2="260"></line><line x1="130" y1="0" x2="130" y2="260"></line><line x1="158.8888888888889" y1="0" x2="158.8888888888889" y2="260"></line><line x1="187.7777777777778" y1="0" x2="187.7777777777778" y2="260"></line><line x1="216.66666666666669" y1="0" x2="216.66666666666669" y2="260"></line><line x1="245.55555555555557" y1="0" x2="245.55555555555557" y2="260"></line>
      </pattern></defs></svg>