<svg xmlns="http://www.w3.org/2000/svg" xmlns:xlink="http://www.w3.org/1999/xlink" width="500" zoomAndPan="magnify" viewBox="0 0 375 374.999991" height="500" preserveAspectRatio="xMidYMid meet" version="1.0"><defs><g/><clipPath id="bdb99e0cfe"><path d="M 115 77 L 332 77 L 332 309 L 115 309 Z M 115 77 " clip-rule="nonzero"/></clipPath><clipPath id="938674192f"><path d="M 98.984375 91.941406 L 295.730469 58.917969 L 332.105469 275.636719 L 135.359375 308.660156 Z M 98.984375 91.941406 " clip-rule="nonzero"/></clipPath><clipPath id="5e0c3f1b39"><path d="M 98.984375 91.941406 L 295.730469 58.917969 L 332.105469 275.636719 L 135.359375 308.660156 Z M 98.984375 91.941406 " clip-rule="nonzero"/></clipPath><clipPath id="2dadb7aa43"><path d="M 110 33 L 315 33 L 315 252 L 110 252 Z M 110 33 " clip-rule="nonzero"/></clipPath><clipPath id="3bec276ba0"><path d="M 94.980469 47.046875 L 280.632812 15.886719 L 315.019531 220.769531 L 129.367188 251.929688 Z M 94.980469 47.046875 " clip-rule="nonzero"/></clipPath><clipPath id="375f40e395"><path d="M 94.980469 47.046875 L 280.632812 15.886719 L 315.019531 220.769531 L 129.367188 251.929688 Z M 94.980469 47.046875 " clip-rule="nonzero"/></clipPath><clipPath id="6130dc9d06"><path d="M 90 94 L 93 94 L 93 104 L 90 104 Z M 90 94 " clip-rule="nonzero"/></clipPath><clipPath id="cd7f814a0a"><path d="M -29.070312 263.15625 L 53.234375 61.023438 L 288.714844 156.90625 L 206.40625 359.039062 Z M -29.070312 263.15625 " clip-rule="nonzero"/></clipPath><clipPath id="91fd6039d8"><path d="M -29.070312 263.15625 L 53.234375 61.023438 L 288.714844 156.90625 L 206.40625 359.039062 Z M -29.070312 263.15625 " clip-rule="nonzero"/></clipPath><clipPath id="2cec15bf25"><path d="M 50 127 L 58 127 L 58 135 L 50 135 Z M 50 127 " clip-rule="nonzero"/></clipPath><clipPath id="c564482801"><path d="M -29.070312 263.15625 L 53.234375 61.023438 L 288.714844 156.90625 L 206.40625 359.039062 Z M -29.070312 263.15625 " clip-rule="nonzero"/></clipPath><clipPath id="175210a1d2"><path d="M -29.070312 263.15625 L 53.234375 61.023438 L 288.714844 156.90625 L 206.40625 359.039062 Z M -29.070312 263.15625 " clip-rule="nonzero"/></clipPath><clipPath id="831b907699"><path d="M 8 168 L 16 168 L 16 176 L 8 176 Z M 8 168 " clip-rule="nonzero"/></clipPath><clipPath id="27f89f85eb"><path d="M -29.070312 263.15625 L 53.234375 61.023438 L 288.714844 156.90625 L 206.40625 359.039062 Z M -29.070312 263.15625 " clip-rule="nonzero"/></clipPath><clipPath id="bcd6e019e0"><path d="M -29.070312 263.15625 L 53.234375 61.023438 L 288.714844 156.90625 L 206.40625 359.039062 Z M -29.070312 263.15625 " clip-rule="nonzero"/></clipPath><clipPath id="22a3085247"><path d="M 92 107 L 95 107 L 95 117 L 92 117 Z M 92 107 " clip-rule="nonzero"/></clipPath><clipPath id="94d34e43fc"><path d="M -29.070312 263.15625 L 53.234375 61.023438 L 288.714844 156.90625 L 206.40625 359.039062 Z M -29.070312 263.15625 " clip-rule="nonzero"/></clipPath><clipPath id="e8a291f3f1"><path d="M -29.070312 263.15625 L 53.234375 61.023438 L 288.714844 156.90625 L 206.40625 359.039062 Z M -29.070312 263.15625 " clip-rule="nonzero"/></clipPath><clipPath id="9333f3721e"><path d="M 28 173 L 36 173 L 36 181 L 28 181 Z M 28 173 " clip-rule="nonzero"/></clipPath><clipPath id="10d5391caa"><path d="M -29.070312 263.15625 L 53.234375 61.023438 L 288.714844 156.90625 L 206.40625 359.039062 Z M -29.070312 263.15625 " clip-rule="nonzero"/></clipPath><clipPath id="afeeb39dd3"><path d="M -29.070312 263.15625 L 53.234375 61.023438 L 288.714844 156.90625 L 206.40625 359.039062 Z M -29.070312 263.15625 " clip-rule="nonzero"/></clipPath><clipPath id="fed9d3cb77"><path d="M 51 170 L 55 170 L 55 174 L 51 174 Z M 51 170 " clip-rule="nonzero"/></clipPath><clipPath id="cad9186ab2"><path d="M -29.070312 263.15625 L 53.234375 61.023438 L 288.714844 156.90625 L 206.40625 359.039062 Z M -29.070312 263.15625 " clip-rule="nonzero"/></clipPath><clipPath id="e0d9be35f3"><path d="M -29.070312 263.15625 L 53.234375 61.023438 L 288.714844 156.90625 L 206.40625 359.039062 Z M -29.070312 263.15625 " clip-rule="nonzero"/></clipPath><clipPath id="2d2fc24fd9"><path d="M 99 135 L 100 135 L 100 137 L 99 137 Z M 99 135 " clip-rule="nonzero"/></clipPath><clipPath id="0bc3d0befa"><path d="M -29.070312 263.15625 L 53.234375 61.023438 L 288.714844 156.90625 L 206.40625 359.039062 Z M -29.070312 263.15625 " clip-rule="nonzero"/></clipPath><clipPath id="0da92ac31d"><path d="M -29.070312 263.15625 L 53.234375 61.023438 L 288.714844 156.90625 L 206.40625 359.039062 Z M -29.070312 263.15625 " clip-rule="nonzero"/></clipPath><clipPath id="95c77aca2f"><path d="M 73 159 L 85 159 L 85 170 L 73 170 Z M 73 159 " clip-rule="nonzero"/></clipPath><clipPath id="6114081070"><path d="M -29.070312 263.15625 L 53.234375 61.023438 L 288.714844 156.90625 L 206.40625 359.039062 Z M -29.070312 263.15625 " clip-rule="nonzero"/></clipPath><clipPath id="3963ad36eb"><path d="M -29.070312 263.15625 L 53.234375 61.023438 L 288.714844 156.90625 L 206.40625 359.039062 Z M -29.070312 263.15625 " clip-rule="nonzero"/></clipPath><clipPath id="32598330c9"><path d="M 149 124 L 151 124 L 151 128 L 149 128 Z M 149 124 " clip-rule="nonzero"/></clipPath><clipPath id="b57fbd5dac"><path d="M -29.070312 263.15625 L 53.234375 61.023438 L 288.714844 156.90625 L 206.40625 359.039062 Z M -29.070312 263.15625 " clip-rule="nonzero"/></clipPath><clipPath id="8bc8ef60e1"><path d="M -29.070312 263.15625 L 53.234375 61.023438 L 288.714844 156.90625 L 206.40625 359.039062 Z M -29.070312 263.15625 " clip-rule="nonzero"/></clipPath><clipPath id="8741a4df3e"><path d="M 61 205 L 67 205 L 67 211 L 61 211 Z M 61 205 " clip-rule="nonzero"/></clipPath><clipPath id="8bb0e6fa7e"><path d="M -29.070312 263.15625 L 53.234375 61.023438 L 288.714844 156.90625 L 206.40625 359.039062 Z M -29.070312 263.15625 " clip-rule="nonzero"/></clipPath><clipPath id="495abf0bf2"><path d="M -29.070312 263.15625 L 53.234375 61.023438 L 288.714844 156.90625 L 206.40625 359.039062 Z M -29.070312 263.15625 " clip-rule="nonzero"/></clipPath><clipPath id="62ae09ddaf"><path d="M 10 253 L 30 253 L 30 276 L 10 276 Z M 10 253 " clip-rule="nonzero"/></clipPath><clipPath id="9dcb7d10a2"><path d="M -29.070312 263.15625 L 53.234375 61.023438 L 288.714844 156.90625 L 206.40625 359.039062 Z M -29.070312 263.15625 " clip-rule="nonzero"/></clipPath><clipPath id="5bd5884431"><path d="M -29.070312 263.15625 L 53.234375 61.023438 L 288.714844 156.90625 L 206.40625 359.039062 Z M -29.070312 263.15625 " clip-rule="nonzero"/></clipPath><clipPath id="e743636080"><path d="M 179 121 L 195 121 L 195 138 L 179 138 Z M 179 121 " clip-rule="nonzero"/></clipPath><clipPath id="961a6fa15d"><path d="M -29.070312 263.15625 L 53.234375 61.023438 L 288.714844 156.90625 L 206.40625 359.039062 Z M -29.070312 263.15625 " clip-rule="nonzero"/></clipPath><clipPath id="fe0697d77b"><path d="M -29.070312 263.15625 L 53.234375 61.023438 L 288.714844 156.90625 L 206.40625 359.039062 Z M -29.070312 263.15625 " clip-rule="nonzero"/></clipPath><clipPath id="b125e9d02e"><path d="M 179 128 L 181 128 L 181 130 L 179 130 Z M 179 128 " clip-rule="nonzero"/></clipPath><clipPath id="cdca3f0187"><path d="M -29.070312 263.15625 L 53.234375 61.023438 L 288.714844 156.90625 L 206.40625 359.039062 Z M -29.070312 263.15625 " clip-rule="nonzero"/></clipPath><clipPath id="e039bd7a9d"><path d="M -29.070312 263.15625 L 53.234375 61.023438 L 288.714844 156.90625 L 206.40625 359.039062 Z M -29.070312 263.15625 " clip-rule="nonzero"/></clipPath><clipPath id="9ec55d53a3"><path d="M 172 164 L 186 164 L 186 179 L 172 179 Z M 172 164 " clip-rule="nonzero"/></clipPath><clipPath id="fb56e611da"><path d="M -29.070312 263.15625 L 53.234375 61.023438 L 288.714844 156.90625 L 206.40625 359.039062 Z M -29.070312 263.15625 " clip-rule="nonzero"/></clipPath><clipPath id="9a29ccb20d"><path d="M -29.070312 263.15625 L 53.234375 61.023438 L 288.714844 156.90625 L 206.40625 359.039062 Z M -29.070312 263.15625 " clip-rule="nonzero"/></clipPath><clipPath id="5ac18a0ec3"><path d="M 66 264 L 79 264 L 79 278 L 66 278 Z M 66 264 " clip-rule="nonzero"/></clipPath><clipPath id="99e007d4b3"><path d="M -29.070312 263.15625 L 53.234375 61.023438 L 288.714844 156.90625 L 206.40625 359.039062 Z M -29.070312 263.15625 " clip-rule="nonzero"/></clipPath><clipPath id="818f32d81c"><path d="M -29.070312 263.15625 L 53.234375 61.023438 L 288.714844 156.90625 L 206.40625 359.039062 Z M -29.070312 263.15625 " clip-rule="nonzero"/></clipPath><clipPath id="d3aea8eb37"><path d="M 69 282 L 75 282 L 75 288 L 69 288 Z M 69 282 " clip-rule="nonzero"/></clipPath><clipPath id="12a2197326"><path d="M -29.070312 263.15625 L 53.234375 61.023438 L 288.714844 156.90625 L 206.40625 359.039062 Z M -29.070312 263.15625 " clip-rule="nonzero"/></clipPath><clipPath id="1c631d4183"><path d="M -29.070312 263.15625 L 53.234375 61.023438 L 288.714844 156.90625 L 206.40625 359.039062 Z M -29.070312 263.15625 " clip-rule="nonzero"/></clipPath><clipPath id="8096179c24"><path d="M 160 218 L 161 218 L 161 219 L 160 219 Z M 160 218 " clip-rule="nonzero"/></clipPath><clipPath id="380112ec45"><path d="M -29.070312 263.15625 L 53.234375 61.023438 L 288.714844 156.90625 L 206.40625 359.039062 Z M -29.070312 263.15625 " clip-rule="nonzero"/></clipPath><clipPath id="6ea9616f1c"><path d="M -29.070312 263.15625 L 53.234375 61.023438 L 288.714844 156.90625 L 206.40625 359.039062 Z M -29.070312 263.15625 " clip-rule="nonzero"/></clipPath><clipPath id="d67224995b"><path d="M 162 215 L 172 215 L 172 219 L 162 219 Z M 162 215 " clip-rule="nonzero"/></clipPath><clipPath id="b80c56b0ff"><path d="M -29.070312 263.15625 L 53.234375 61.023438 L 288.714844 156.90625 L 206.40625 359.039062 Z M -29.070312 263.15625 " clip-rule="nonzero"/></clipPath><clipPath id="03a4e15ced"><path d="M -29.070312 263.15625 L 53.234375 61.023438 L 288.714844 156.90625 L 206.40625 359.039062 Z M -29.070312 263.15625 " clip-rule="nonzero"/></clipPath><clipPath id="59178ce341"><path d="M 68 292 L 79 292 L 79 303 L 68 303 Z M 68 292 " clip-rule="nonzero"/></clipPath><clipPath id="a8e1ad8152"><path d="M -29.070312 263.15625 L 53.234375 61.023438 L 288.714844 156.90625 L 206.40625 359.039062 Z M -29.070312 263.15625 " clip-rule="nonzero"/></clipPath><clipPath id="235abffe19"><path d="M -29.070312 263.15625 L 53.234375 61.023438 L 288.714844 156.90625 L 206.40625 359.039062 Z M -29.070312 263.15625 " clip-rule="nonzero"/></clipPath><clipPath id="14a2fdf79b"><path d="M 162 221 L 166 221 L 166 224 L 162 224 Z M 162 221 " clip-rule="nonzero"/></clipPath><clipPath id="c2a38a0d90"><path d="M -29.070312 263.15625 L 53.234375 61.023438 L 288.714844 156.90625 L 206.40625 359.039062 Z M -29.070312 263.15625 " clip-rule="nonzero"/></clipPath><clipPath id="5236445e08"><path d="M -29.070312 263.15625 L 53.234375 61.023438 L 288.714844 156.90625 L 206.40625 359.039062 Z M -29.070312 263.15625 " clip-rule="nonzero"/></clipPath><clipPath id="5d66fd982f"><path d="M 179 209 L 180 209 L 180 211 L 179 211 Z M 179 209 " clip-rule="nonzero"/></clipPath><clipPath id="1427f66e42"><path d="M -29.070312 263.15625 L 53.234375 61.023438 L 288.714844 156.90625 L 206.40625 359.039062 Z M -29.070312 263.15625 " clip-rule="nonzero"/></clipPath><clipPath id="35dac29abd"><path d="M -29.070312 263.15625 L 53.234375 61.023438 L 288.714844 156.90625 L 206.40625 359.039062 Z M -29.070312 263.15625 " clip-rule="nonzero"/></clipPath><clipPath id="6117711481"><path d="M 173 214 L 176 214 L 176 215 L 173 215 Z M 173 214 " clip-rule="nonzero"/></clipPath><clipPath id="3829e7afff"><path d="M -29.070312 263.15625 L 53.234375 61.023438 L 288.714844 156.90625 L 206.40625 359.039062 Z M -29.070312 263.15625 " clip-rule="nonzero"/></clipPath><clipPath id="a406d6c0da"><path d="M -29.070312 263.15625 L 53.234375 61.023438 L 288.714844 156.90625 L 206.40625 359.039062 Z M -29.070312 263.15625 " clip-rule="nonzero"/></clipPath><clipPath id="c05706569f"><path d="M 197 201 L 199 201 L 199 203 L 197 203 Z M 197 201 " clip-rule="nonzero"/></clipPath><clipPath id="588468a6e2"><path d="M -29.070312 263.15625 L 53.234375 61.023438 L 288.714844 156.90625 L 206.40625 359.039062 Z M -29.070312 263.15625 " clip-rule="nonzero"/></clipPath><clipPath id="ad40aa7986"><path d="M -29.070312 263.15625 L 53.234375 61.023438 L 288.714844 156.90625 L 206.40625 359.039062 Z M -29.070312 263.15625 " clip-rule="nonzero"/></clipPath><clipPath id="9214eb46a7"><path d="M 165 231 L 166 231 L 166 232 L 165 232 Z M 165 231 " clip-rule="nonzero"/></clipPath><clipPath id="2542a850d2"><path d="M -29.070312 263.15625 L 53.234375 61.023438 L 288.714844 156.90625 L 206.40625 359.039062 Z M -29.070312 263.15625 " clip-rule="nonzero"/></clipPath><clipPath id="9ef276e746"><path d="M -29.070312 263.15625 L 53.234375 61.023438 L 288.714844 156.90625 L 206.40625 359.039062 Z M -29.070312 263.15625 " clip-rule="nonzero"/></clipPath><clipPath id="8ae77cc8bd"><path d="M 208 194 L 215 194 L 215 198 L 208 198 Z M 208 194 " clip-rule="nonzero"/></clipPath><clipPath id="cfa6c7841e"><path d="M -29.070312 263.15625 L 53.234375 61.023438 L 288.714844 156.90625 L 206.40625 359.039062 Z M -29.070312 263.15625 " clip-rule="nonzero"/></clipPath><clipPath id="e1e116fe55"><path d="M -29.070312 263.15625 L 53.234375 61.023438 L 288.714844 156.90625 L 206.40625 359.039062 Z M -29.070312 263.15625 " clip-rule="nonzero"/></clipPath><clipPath id="fac97e5230"><path d="M 155 254 L 157 254 L 157 256 L 155 256 Z M 155 254 " clip-rule="nonzero"/></clipPath><clipPath id="8e30bf945d"><path d="M -29.070312 263.15625 L 53.234375 61.023438 L 288.714844 156.90625 L 206.40625 359.039062 Z M -29.070312 263.15625 " clip-rule="nonzero"/></clipPath><clipPath id="2539224597"><path d="M -29.070312 263.15625 L 53.234375 61.023438 L 288.714844 156.90625 L 206.40625 359.039062 Z M -29.070312 263.15625 " clip-rule="nonzero"/></clipPath><clipPath id="3c321ed051"><path d="M 210 215 L 213 215 L 213 217 L 210 217 Z M 210 215 " clip-rule="nonzero"/></clipPath><clipPath id="ab1e917393"><path d="M -29.070312 263.15625 L 53.234375 61.023438 L 288.714844 156.90625 L 206.40625 359.039062 Z M -29.070312 263.15625 " clip-rule="nonzero"/></clipPath><clipPath id="886bac442f"><path d="M -29.070312 263.15625 L 53.234375 61.023438 L 288.714844 156.90625 L 206.40625 359.039062 Z M -29.070312 263.15625 " clip-rule="nonzero"/></clipPath><clipPath id="a010e05b47"><path d="M 213 213 L 216 213 L 216 216 L 213 216 Z M 213 213 " clip-rule="nonzero"/></clipPath><clipPath id="d055857c64"><path d="M -29.070312 263.15625 L 53.234375 61.023438 L 288.714844 156.90625 L 206.40625 359.039062 Z M -29.070312 263.15625 " clip-rule="nonzero"/></clipPath><clipPath id="f5f8e696ef"><path d="M -29.070312 263.15625 L 53.234375 61.023438 L 288.714844 156.90625 L 206.40625 359.039062 Z M -29.070312 263.15625 " clip-rule="nonzero"/></clipPath><clipPath id="81143fdefe"><path d="M 227 208 L 228 208 L 228 209 L 227 209 Z M 227 208 " clip-rule="nonzero"/></clipPath><clipPath id="dc631d2ea7"><path d="M -29.070312 263.15625 L 53.234375 61.023438 L 288.714844 156.90625 L 206.40625 359.039062 Z M -29.070312 263.15625 " clip-rule="nonzero"/></clipPath><clipPath id="9b2aacc1b1"><path d="M -29.070312 263.15625 L 53.234375 61.023438 L 288.714844 156.90625 L 206.40625 359.039062 Z M -29.070312 263.15625 " clip-rule="nonzero"/></clipPath><clipPath id="dbea3c8993"><path d="M 227 209 L 230 209 L 230 211 L 227 211 Z M 227 209 " clip-rule="nonzero"/></clipPath><clipPath id="c3439e880d"><path d="M -29.070312 263.15625 L 53.234375 61.023438 L 288.714844 156.90625 L 206.40625 359.039062 Z M -29.070312 263.15625 " clip-rule="nonzero"/></clipPath><clipPath id="2f2aecb717"><path d="M -29.070312 263.15625 L 53.234375 61.023438 L 288.714844 156.90625 L 206.40625 359.039062 Z M -29.070312 263.15625 " clip-rule="nonzero"/></clipPath><clipPath id="cc1f8a0265"><path d="M 112 310 L 116 310 L 116 322 L 112 322 Z M 112 310 " clip-rule="nonzero"/></clipPath><clipPath id="d24060658e"><path d="M -29.070312 263.15625 L 53.234375 61.023438 L 288.714844 156.90625 L 206.40625 359.039062 Z M -29.070312 263.15625 " clip-rule="nonzero"/></clipPath><clipPath id="8ea67dad34"><path d="M -29.070312 263.15625 L 53.234375 61.023438 L 288.714844 156.90625 L 206.40625 359.039062 Z M -29.070312 263.15625 " clip-rule="nonzero"/></clipPath><clipPath id="68776cee58"><path d="M 251 199 L 270 199 L 270 209 L 251 209 Z M 251 199 " clip-rule="nonzero"/></clipPath><clipPath id="2801b624c5"><path d="M -29.070312 263.15625 L 53.234375 61.023438 L 288.714844 156.90625 L 206.40625 359.039062 Z M -29.070312 263.15625 " clip-rule="nonzero"/></clipPath><clipPath id="872907e590"><path d="M -29.070312 263.15625 L 53.234375 61.023438 L 288.714844 156.90625 L 206.40625 359.039062 Z M -29.070312 263.15625 " clip-rule="nonzero"/></clipPath><clipPath id="ee40b8b51b"><path d="M 84 98 L 86 98 L 86 101 L 84 101 Z M 84 98 " clip-rule="nonzero"/></clipPath><clipPath id="ab1e25061a"><path d="M -29.070312 263.15625 L 53.234375 61.023438 L 288.714844 156.90625 L 206.40625 359.039062 Z M -29.070312 263.15625 " clip-rule="nonzero"/></clipPath><clipPath id="d16c822da3"><path d="M -29.070312 263.15625 L 53.234375 61.023438 L 288.714844 156.90625 L 206.40625 359.039062 Z M -29.070312 263.15625 " clip-rule="nonzero"/></clipPath><clipPath id="67e2b6e6f6"><path d="M 60 128 L 62 128 L 62 131 L 60 131 Z M 60 128 " clip-rule="nonzero"/></clipPath><clipPath id="cb8ceb362d"><path d="M -29.070312 263.15625 L 53.234375 61.023438 L 288.714844 156.90625 L 206.40625 359.039062 Z M -29.070312 263.15625 " clip-rule="nonzero"/></clipPath><clipPath id="cd22a94a2a"><path d="M -29.070312 263.15625 L 53.234375 61.023438 L 288.714844 156.90625 L 206.40625 359.039062 Z M -29.070312 263.15625 " clip-rule="nonzero"/></clipPath><clipPath id="2a3dc76360"><path d="M 52 135 L 70 135 L 70 154 L 52 154 Z M 52 135 " clip-rule="nonzero"/></clipPath><clipPath id="20b94b328a"><path d="M -29.070312 263.15625 L 53.234375 61.023438 L 288.714844 156.90625 L 206.40625 359.039062 Z M -29.070312 263.15625 " clip-rule="nonzero"/></clipPath><clipPath id="30aa56e875"><path d="M -29.070312 263.15625 L 53.234375 61.023438 L 288.714844 156.90625 L 206.40625 359.039062 Z M -29.070312 263.15625 " clip-rule="nonzero"/></clipPath><clipPath id="39ea746348"><path d="M 56 137 L 57 137 L 57 138 L 56 138 Z M 56 137 " clip-rule="nonzero"/></clipPath><clipPath id="c1b6a9e54a"><path d="M -29.070312 263.15625 L 53.234375 61.023438 L 288.714844 156.90625 L 206.40625 359.039062 Z M -29.070312 263.15625 " clip-rule="nonzero"/></clipPath><clipPath id="0eef6e6cd0"><path d="M -29.070312 263.15625 L 53.234375 61.023438 L 288.714844 156.90625 L 206.40625 359.039062 Z M -29.070312 263.15625 " clip-rule="nonzero"/></clipPath><clipPath id="713868741a"><path d="M 46 126 L 228 126 L 228 295 L 46 295 Z M 46 126 " clip-rule="nonzero"/></clipPath><clipPath id="f8cf278ba8"><path d="M -29.070312 263.15625 L 53.234375 61.023438 L 288.714844 156.90625 L 206.40625 359.039062 Z M -29.070312 263.15625 " clip-rule="nonzero"/></clipPath><clipPath id="2830706267"><path d="M -29.070312 263.15625 L 53.234375 61.023438 L 288.714844 156.90625 L 206.40625 359.039062 Z M -29.070312 263.15625 " clip-rule="nonzero"/></clipPath><clipPath id="7d5d593cf6"><path d="M 56 196 L 58 196 L 58 197 L 56 197 Z M 56 196 " clip-rule="nonzero"/></clipPath><clipPath id="3b24511347"><path d="M -29.070312 263.15625 L 53.234375 61.023438 L 288.714844 156.90625 L 206.40625 359.039062 Z M -29.070312 263.15625 " clip-rule="nonzero"/></clipPath><clipPath id="ade51dc505"><path d="M -29.070312 263.15625 L 53.234375 61.023438 L 288.714844 156.90625 L 206.40625 359.039062 Z M -29.070312 263.15625 " clip-rule="nonzero"/></clipPath><clipPath id="129ffaef91"><path d="M 53 169 L 56 169 L 56 171 L 53 171 Z M 53 169 " clip-rule="nonzero"/></clipPath><clipPath id="32cb33b25d"><path d="M -29.070312 263.15625 L 53.234375 61.023438 L 288.714844 156.90625 L 206.40625 359.039062 Z M -29.070312 263.15625 " clip-rule="nonzero"/></clipPath><clipPath id="9a85b3237f"><path d="M -29.070312 263.15625 L 53.234375 61.023438 L 288.714844 156.90625 L 206.40625 359.039062 Z M -29.070312 263.15625 " clip-rule="nonzero"/></clipPath><clipPath id="95b8bf3212"><path d="M 101 138 L 103 138 L 103 144 L 101 144 Z M 101 138 " clip-rule="nonzero"/></clipPath><clipPath id="aa041b2107"><path d="M -29.070312 263.15625 L 53.234375 61.023438 L 288.714844 156.90625 L 206.40625 359.039062 Z M -29.070312 263.15625 " clip-rule="nonzero"/></clipPath><clipPath id="4d028239c9"><path d="M -29.070312 263.15625 L 53.234375 61.023438 L 288.714844 156.90625 L 206.40625 359.039062 Z M -29.070312 263.15625 " clip-rule="nonzero"/></clipPath><clipPath id="41df9c3693"><path d="M 151 103 L 157 103 L 157 117 L 151 117 Z M 151 103 " clip-rule="nonzero"/></clipPath><clipPath id="64cebc28eb"><path d="M -29.070312 263.15625 L 53.234375 61.023438 L 288.714844 156.90625 L 206.40625 359.039062 Z M -29.070312 263.15625 " clip-rule="nonzero"/></clipPath><clipPath id="0c2842b292"><path d="M -29.070312 263.15625 L 53.234375 61.023438 L 288.714844 156.90625 L 206.40625 359.039062 Z M -29.070312 263.15625 " clip-rule="nonzero"/></clipPath><clipPath id="e1be9c8036"><path d="M 149.890625 116.183594 L 155.355469 102.757812 L 157.640625 103.6875 L 152.171875 117.113281 Z M 149.890625 116.183594 " clip-rule="nonzero"/></clipPath><clipPath id="bbe45c0739"><path d="M 104 149 L 105 149 L 105 151 L 104 151 Z M 104 149 " clip-rule="nonzero"/></clipPath><clipPath id="da37b465f6"><path d="M -29.070312 263.15625 L 53.234375 61.023438 L 288.714844 156.90625 L 206.40625 359.039062 Z M -29.070312 263.15625 " clip-rule="nonzero"/></clipPath><clipPath id="7cf0275a20"><path d="M -29.070312 263.15625 L 53.234375 61.023438 L 288.714844 156.90625 L 206.40625 359.039062 Z M -29.070312 263.15625 " clip-rule="nonzero"/></clipPath><clipPath id="011b3d2dae"><path d="M 159 218 L 161 218 L 161 220 L 159 220 Z M 159 218 " clip-rule="nonzero"/></clipPath><clipPath id="e2186d2ec0"><path d="M -29.070312 263.15625 L 53.234375 61.023438 L 288.714844 156.90625 L 206.40625 359.039062 Z M -29.070312 263.15625 " clip-rule="nonzero"/></clipPath><clipPath id="f08fdefaae"><path d="M -29.070312 263.15625 L 53.234375 61.023438 L 288.714844 156.90625 L 206.40625 359.039062 Z M -29.070312 263.15625 " clip-rule="nonzero"/></clipPath><clipPath id="ce64fe6438"><path d="M 161 217 L 163 217 L 163 219 L 161 219 Z M 161 217 " clip-rule="nonzero"/></clipPath><clipPath id="3033d28f0b"><path d="M -29.070312 263.15625 L 53.234375 61.023438 L 288.714844 156.90625 L 206.40625 359.039062 Z M -29.070312 263.15625 " clip-rule="nonzero"/></clipPath><clipPath id="2b031382b8"><path d="M -29.070312 263.15625 L 53.234375 61.023438 L 288.714844 156.90625 L 206.40625 359.039062 Z M -29.070312 263.15625 " clip-rule="nonzero"/></clipPath><clipPath id="3646ec003b"><path d="M 162 218 L 163 218 L 163 219 L 162 219 Z M 162 218 " clip-rule="nonzero"/></clipPath><clipPath id="2b4d7f640c"><path d="M -29.070312 263.15625 L 53.234375 61.023438 L 288.714844 156.90625 L 206.40625 359.039062 Z M -29.070312 263.15625 " clip-rule="nonzero"/></clipPath><clipPath id="778b6060e6"><path d="M -29.070312 263.15625 L 53.234375 61.023438 L 288.714844 156.90625 L 206.40625 359.039062 Z M -29.070312 263.15625 " clip-rule="nonzero"/></clipPath><clipPath id="dca6c86ad2"><path d="M 177 212 L 184 212 L 184 214 L 177 214 Z M 177 212 " clip-rule="nonzero"/></clipPath><clipPath id="6ee68ba690"><path d="M -29.070312 263.15625 L 53.234375 61.023438 L 288.714844 156.90625 L 206.40625 359.039062 Z M -29.070312 263.15625 " clip-rule="nonzero"/></clipPath><clipPath id="d75373b765"><path d="M -29.070312 263.15625 L 53.234375 61.023438 L 288.714844 156.90625 L 206.40625 359.039062 Z M -29.070312 263.15625 " clip-rule="nonzero"/></clipPath><clipPath id="53d9e020c7"><path d="M 190 219 L 202 219 L 202 224 L 190 224 Z M 190 219 " clip-rule="nonzero"/></clipPath><clipPath id="967efb16de"><path d="M -29.070312 263.15625 L 53.234375 61.023438 L 288.714844 156.90625 L 206.40625 359.039062 Z M -29.070312 263.15625 " clip-rule="nonzero"/></clipPath><clipPath id="336861e2a0"><path d="M -29.070312 263.15625 L 53.234375 61.023438 L 288.714844 156.90625 L 206.40625 359.039062 Z M -29.070312 263.15625 " clip-rule="nonzero"/></clipPath><clipPath id="4ed779c19c"><path d="M 202 216 L 211 216 L 211 220 L 202 220 Z M 202 216 " clip-rule="nonzero"/></clipPath><clipPath id="c7ffbf4997"><path d="M -29.070312 263.15625 L 53.234375 61.023438 L 288.714844 156.90625 L 206.40625 359.039062 Z M -29.070312 263.15625 " clip-rule="nonzero"/></clipPath><clipPath id="8a01f5b3ed"><path d="M -29.070312 263.15625 L 53.234375 61.023438 L 288.714844 156.90625 L 206.40625 359.039062 Z M -29.070312 263.15625 " clip-rule="nonzero"/></clipPath><clipPath id="055dfa7274"><path d="M 221 211 L 224 211 L 224 213 L 221 213 Z M 221 211 " clip-rule="nonzero"/></clipPath><clipPath id="855e8d8c0c"><path d="M -29.070312 263.15625 L 53.234375 61.023438 L 288.714844 156.90625 L 206.40625 359.039062 Z M -29.070312 263.15625 " clip-rule="nonzero"/></clipPath><clipPath id="81de34ea85"><path d="M -29.070312 263.15625 L 53.234375 61.023438 L 288.714844 156.90625 L 206.40625 359.039062 Z M -29.070312 263.15625 " clip-rule="nonzero"/></clipPath><clipPath id="ee06f29f59"><path d="M 194 249 L 201 249 L 201 251 L 194 251 Z M 194 249 " clip-rule="nonzero"/></clipPath><clipPath id="e59fb9c8f9"><path d="M -29.070312 263.15625 L 53.234375 61.023438 L 288.714844 156.90625 L 206.40625 359.039062 Z M -29.070312 263.15625 " clip-rule="nonzero"/></clipPath><clipPath id="d81e4d9fbb"><path d="M -29.070312 263.15625 L 53.234375 61.023438 L 288.714844 156.90625 L 206.40625 359.039062 Z M -29.070312 263.15625 " clip-rule="nonzero"/></clipPath><clipPath id="a0c80bea36"><path d="M 51 154 L 54 154 L 54 159 L 51 159 Z M 51 154 " clip-rule="nonzero"/></clipPath><clipPath id="93a736fd75"><path d="M -29.070312 263.15625 L 53.234375 61.023438 L 288.714844 156.90625 L 206.40625 359.039062 Z M -29.070312 263.15625 " clip-rule="nonzero"/></clipPath><clipPath id="e21568f8a1"><path d="M -29.070312 263.15625 L 53.234375 61.023438 L 288.714844 156.90625 L 206.40625 359.039062 Z M -29.070312 263.15625 " clip-rule="nonzero"/></clipPath><clipPath id="ece6d54059"><path d="M 124 291 L 130 291 L 130 297 L 124 297 Z M 124 291 " clip-rule="nonzero"/></clipPath><clipPath id="dce8ec6e1a"><path d="M -29.070312 263.15625 L 53.234375 61.023438 L 288.714844 156.90625 L 206.40625 359.039062 Z M -29.070312 263.15625 " clip-rule="nonzero"/></clipPath><clipPath id="3f0b7c809b"><path d="M -29.070312 263.15625 L 53.234375 61.023438 L 288.714844 156.90625 L 206.40625 359.039062 Z M -29.070312 263.15625 " clip-rule="nonzero"/></clipPath></defs><g clip-path="url(#bdb99e0cfe)"><g clip-path="url(#938674192f)"><g clip-path="url(#5e0c3f1b39)"><path fill="#72e2ae" d="M 115.886719 115.125 L 135.320312 308.421875 L 331.917969 275.425781 L 272.777344 79.496094 L 245.640625 166.996094 L 187.1875 77.597656 L 170.085938 176.425781 Z M 115.886719 115.125 " fill-opacity="1" fill-rule="nonzero"/></g></g></g><g clip-path="url(#2dadb7aa43)"><g clip-path="url(#3bec276ba0)"><g clip-path="url(#375f40e395)"><path fill="#72e2ae" d="M 110.9375 68.941406 L 129.289062 251.457031 L 314.917969 220.296875 L 259.078125 35.300781 L 233.457031 117.917969 L 178.265625 33.507812 L 162.117188 126.824219 Z M 110.9375 68.941406 " fill-opacity="1" fill-rule="nonzero"/></g></g></g><g clip-path="url(#6130dc9d06)"><g clip-path="url(#cd7f814a0a)"><g clip-path="url(#91fd6039d8)"><path fill="#05abc4" d="M 92.546875 102.589844 C 92.242188 102.453125 92.335938 102.25 92.050781 101.960938 C 92.40625 99.886719 91.683594 97.691406 91.765625 95.585938 C 91.609375 95.46875 91.214844 95.480469 91.433594 95.167969 C 91.546875 95.277344 91.640625 95.574219 91.796875 95.335938 C 91.492188 95.230469 91.425781 94.703125 91.214844 94.890625 C 90.585938 95.828125 91.3125 97.292969 91.382812 98.394531 C 91.488281 100.085938 91.753906 102.019531 92.238281 103.628906 C 92.605469 103.316406 92.410156 102.933594 92.546875 102.589844 " fill-opacity="1" fill-rule="evenodd"/></g></g></g><g clip-path="url(#2cec15bf25)"><g clip-path="url(#c564482801)"><g clip-path="url(#175210a1d2)"><path fill="#05abc4" d="M 52.582031 129.195312 C 52.730469 129.59375 52.355469 129.929688 51.949219 130.265625 C 51.878906 129.902344 52.183594 129.300781 52.582031 129.195312 Z M 55.308594 129.195312 C 55.613281 128.949219 55.90625 129.152344 55.976562 129.460938 C 55.882812 129.535156 55.789062 129.609375 55.695312 129.683594 C 55.523438 129.667969 55.28125 129.367188 55.308594 129.195312 Z M 57.210938 130.871094 C 57.210938 128.25 54.050781 126.027344 51.792969 128.34375 C 51.40625 128.742188 51.0625 129.058594 50.910156 129.386719 C 50.09375 131.152344 51.976562 134.441406 54.441406 133.976562 C 55.671875 133.746094 57.207031 132.429688 57.210938 130.871094 " fill-opacity="1" fill-rule="evenodd"/></g></g></g><g clip-path="url(#831b907699)"><g clip-path="url(#27f89f85eb)"><g clip-path="url(#bcd6e019e0)"><path fill="#05abc4" d="M 11.128906 169.839844 C 11.390625 170.167969 10.902344 170.742188 10.511719 170.785156 C 10.421875 170.433594 10.738281 170.132812 11.128906 169.839844 Z M 14.382812 174.082031 C 15.4375 172.972656 15.144531 171.285156 14.828125 170.199219 C 14.640625 170.460938 13.976562 170.453125 13.910156 169.90625 C 14.089844 169.621094 14.726562 170.023438 14.511719 169.65625 C 14.09375 169.507812 14.144531 169.394531 13.832031 168.945312 C 13.039062 168.734375 12.597656 168.097656 11.777344 168.074219 C 10.492188 168.042969 8.921875 169.847656 8.773438 171.027344 C 8.652344 171.984375 9.152344 172.742188 9.488281 173.644531 C 10.730469 175.1875 12.871094 175.671875 14.382812 174.082031 " fill-opacity="1" fill-rule="evenodd"/></g></g></g><g clip-path="url(#22a3085247)"><g clip-path="url(#94d34e43fc)"><g clip-path="url(#e8a291f3f1)"><path fill="#05abc4" d="M 93.539062 109.425781 C 92.816406 108.910156 93.203125 107.835938 92.613281 107.542969 C 91.898438 109.484375 92.738281 112.109375 92.90625 114.363281 C 93.007812 114.605469 93.148438 114.464844 93.253906 114.65625 C 93.191406 115.117188 93.25 116.113281 93.957031 116.257812 C 94.636719 114.074219 93.707031 111.707031 93.539062 109.425781 " fill-opacity="1" fill-rule="evenodd"/></g></g></g><g clip-path="url(#9333f3721e)"><g clip-path="url(#10d5391caa)"><g clip-path="url(#afeeb39dd3)"><path fill="#05abc4" d="M 30.542969 176.382812 C 30.320312 176.414062 30.546875 175.964844 30.796875 175.839844 C 31.140625 176.070312 30.378906 176.175781 30.542969 176.382812 Z M 32.523438 175.722656 C 32.746094 175.476562 33.101562 175.566406 33.078125 175.851562 C 32.871094 175.992188 32.683594 175.964844 32.523438 175.722656 Z M 29.488281 178.925781 C 30.605469 180.328125 33.582031 181.199219 35.140625 178.878906 C 35.65625 178.105469 35.816406 176.234375 35.597656 175.441406 C 35.167969 173.882812 32.996094 173.148438 31.738281 173.160156 C 30.914062 173.164062 30.703125 173.136719 30.023438 173.722656 C 28.5 175.039062 28.21875 177.324219 29.488281 178.925781 " fill-opacity="1" fill-rule="evenodd"/></g></g></g><g clip-path="url(#fed9d3cb77)"><g clip-path="url(#cad9186ab2)"><g clip-path="url(#e0d9be35f3)"><path fill="#05abc4" d="M 52.769531 171.707031 C 52.9375 171.542969 53.074219 171.621094 53.199219 171.820312 C 53.035156 171.988281 52.894531 171.90625 52.769531 171.707031 Z M 52.21875 170.441406 C 51.640625 170.730469 51.207031 171.421875 51.15625 171.964844 C 51.621094 172.214844 51.390625 172.523438 51.679688 172.914062 C 52.40625 173.210938 53.121094 173.597656 53.847656 173.925781 C 54.703125 172.835938 53.371094 171.273438 52.21875 170.441406 " fill-opacity="1" fill-rule="evenodd"/></g></g></g><g clip-path="url(#2d2fc24fd9)"><g clip-path="url(#0bc3d0befa)"><g clip-path="url(#0da92ac31d)"><path fill="#05abc4" d="M 99.757812 135.886719 C 99.507812 136.132812 99.722656 136.433594 99.726562 136.707031 C 99.898438 136.453125 99.984375 136.1875 99.757812 135.886719 " fill-opacity="1" fill-rule="evenodd"/></g></g></g><g clip-path="url(#95c77aca2f)"><g clip-path="url(#6114081070)"><g clip-path="url(#3963ad36eb)"><path fill="#05abc4" d="M 76.609375 162.90625 C 76.6875 163.335938 76.519531 163.742188 75.964844 164.101562 C 75.652344 163.65625 76.191406 162.871094 76.609375 162.90625 Z M 80.394531 163.65625 C 80.484375 163.585938 80.578125 163.511719 80.671875 163.433594 C 80.910156 163.5625 81.054688 163.605469 81.128906 163.867188 C 81.015625 163.960938 80.898438 164.054688 80.78125 164.144531 C 80.605469 164.132812 80.367188 163.828125 80.394531 163.65625 Z M 83.003906 169.09375 C 84.390625 168.394531 84.496094 167.425781 84.765625 166.441406 C 83.660156 164.097656 82.378906 160.289062 79.40625 159.550781 C 78.496094 159.324219 77.582031 159.65625 76.539062 159.664062 C 72.238281 162.152344 73.148438 165.691406 75.015625 168.492188 C 76.398438 169.355469 77.835938 169.746094 79.3125 169.75 C 80.605469 168.992188 81.851562 168.613281 83.003906 169.09375 " fill-opacity="1" fill-rule="evenodd"/></g></g></g><g clip-path="url(#32598330c9)"><g clip-path="url(#b57fbd5dac)"><g clip-path="url(#8bc8ef60e1)"><path fill="#05abc4" d="M 149.324219 127.25 C 149.980469 126.566406 150.621094 125.539062 149.847656 124.902344 C 149.332031 125.644531 148.9375 126.402344 149.324219 127.25 " fill-opacity="1" fill-rule="evenodd"/></g></g></g><g clip-path="url(#8741a4df3e)"><g clip-path="url(#8bb0e6fa7e)"><g clip-path="url(#495abf0bf2)"><path fill="#05abc4" d="M 64.382812 206.96875 C 64.4375 207.039062 64.492188 207.109375 64.546875 207.179688 C 64.390625 207.433594 64.289062 207.203125 64.15625 207.261719 C 64.101562 207.148438 64.285156 207.066406 64.382812 206.96875 Z M 65.875 209.425781 C 66.242188 208.496094 65.984375 207.492188 65.578125 206.472656 C 64.820312 205.925781 64.011719 205.761719 63.175781 205.878906 C 60.636719 207.226562 62.285156 210.324219 64.535156 210.03125 C 65.027344 209.445312 65.421875 209.675781 65.875 209.425781 " fill-opacity="1" fill-rule="evenodd"/></g></g></g><g clip-path="url(#62ae09ddaf)"><g clip-path="url(#9dcb7d10a2)"><g clip-path="url(#5bd5884431)"><path fill="#05abc4" d="M 16.828125 259.847656 C 16.554688 259.324219 17.320312 258.410156 17.949219 258.390625 C 18.488281 258.960938 17.484375 260.195312 16.828125 259.847656 Z M 25.082031 259.78125 C 25.367188 259.332031 25.886719 259.105469 26.25 259.535156 C 26.210938 259.984375 25.410156 260.203125 25.082031 259.78125 Z M 24.875 273.710938 C 26.628906 272.53125 28.464844 270.699219 29.109375 268.871094 C 29.777344 266.980469 29.195312 265.285156 29.660156 263.542969 C 29.308594 261.507812 27.984375 259.40625 26.6875 257.9375 C 25.71875 256.839844 25.175781 256.128906 23.957031 255.214844 C 21.84375 253.628906 19.0625 252.890625 16.78125 254.199219 C 15.023438 255.207031 13.65625 256.589844 12.828125 257.675781 C 11.476562 259.453125 11.023438 260.765625 10.863281 262.652344 C 10.71875 264.359375 10.503906 265.796875 10.636719 267.382812 C 11.53125 269.78125 12.949219 273.242188 15.367188 274.773438 C 16.632812 275.578125 18.03125 275.332031 19.316406 275.734375 C 21.035156 275.289062 23.097656 274.902344 24.875 273.710938 " fill-opacity="1" fill-rule="evenodd"/></g></g></g><g clip-path="url(#e743636080)"><g clip-path="url(#961a6fa15d)"><g clip-path="url(#fe0697d77b)"><path fill="#05abc4" d="M 187.785156 127.550781 C 187.441406 127.035156 188.28125 126.351562 188.835938 126.148438 C 189.554688 126.722656 188.265625 127.699219 187.785156 127.550781 Z M 187.066406 122.203125 C 186.054688 122.367188 185.011719 122.472656 184.199219 122.886719 C 182.347656 123.832031 181.128906 125.761719 180.367188 127.519531 C 180.707031 127.714844 181.082031 127.578125 181.398438 127.957031 C 181.625 128.796875 180.769531 129.8125 179.859375 130.316406 C 179.707031 131.929688 179.902344 133.402344 181.230469 134.914062 C 181.484375 135.09375 181.765625 135.058594 182.039062 135.070312 C 182.015625 135.382812 181.855469 135.683594 181.992188 136.015625 C 182.535156 136.074219 182.46875 136.40625 182.921875 136.757812 C 183.476562 136.808594 183.914062 137.378906 184.476562 137.570312 C 185.230469 137.824219 187.546875 137.609375 188.429688 137.390625 C 189.226562 137.191406 190.140625 136.539062 190.730469 136.132812 C 192.1875 135.132812 192.523438 134.257812 193.164062 133.175781 C 193.488281 132.628906 193.976562 132.054688 194.171875 131.582031 C 195.039062 129.476562 193.839844 126.683594 193.625 124.734375 C 192.308594 123.621094 191.457031 121.785156 189.921875 121.644531 C 189.128906 121.570312 188.050781 122.042969 187.066406 122.203125 " fill-opacity="1" fill-rule="evenodd"/></g></g></g><g clip-path="url(#b125e9d02e)"><g clip-path="url(#cdca3f0187)"><g clip-path="url(#e039bd7a9d)"><path fill="#05abc4" d="M 180.292969 128.71875 C 179.796875 128.820312 179.808594 129.328125 179.929688 129.691406 C 180.414062 129.585938 180.453125 129.082031 180.292969 128.71875 " fill-opacity="1" fill-rule="evenodd"/></g></g></g><g clip-path="url(#9ec55d53a3)"><g clip-path="url(#fb56e611da)"><g clip-path="url(#9a29ccb20d)"><path fill="#05abc4" d="M 175.121094 168.773438 C 175.292969 169.269531 174.828125 169.992188 174.195312 170.1875 C 173.828125 169.671875 174.515625 168.777344 175.121094 168.773438 Z M 180.679688 167.320312 C 181.097656 167.714844 180.238281 168.390625 179.867188 168.304688 C 179.445312 167.859375 180.289062 167.117188 180.679688 167.320312 Z M 179.09375 177.789062 C 179.683594 177.648438 180.433594 177.613281 180.78125 177.476562 C 181.710938 177.109375 182.710938 176.0625 183.234375 175.414062 C 184.195312 174.230469 185.292969 171.679688 185.007812 169.910156 C 184.914062 169.300781 184.621094 168.445312 184.433594 167.75 C 184.226562 166.984375 183.9375 166.171875 183.59375 165.6875 C 182.628906 164.339844 181.058594 164.929688 179.507812 164.265625 C 174.238281 165.453125 169.996094 171.269531 173.871094 175.796875 C 174.589844 175.992188 174.574219 176.835938 175.269531 177.414062 C 176.386719 178.34375 177.886719 178.082031 179.09375 177.789062 " fill-opacity="1" fill-rule="evenodd"/></g></g></g><g clip-path="url(#5ac18a0ec3)"><g clip-path="url(#99e007d4b3)"><g clip-path="url(#818f32d81c)"><path fill="#05abc4" d="M 70.011719 267.230469 C 70.304688 267.71875 69.730469 268.40625 69.160156 268.589844 C 68.832031 268.101562 69.566406 267.222656 70.011719 267.230469 Z M 75.980469 267.15625 C 75.925781 267.464844 75.515625 267.542969 75.285156 267.707031 C 74.839844 267.261719 75.675781 266.804688 75.980469 267.15625 Z M 68.089844 275.695312 C 68.546875 276.273438 69.6875 277.132812 70.558594 277.375 C 70.84375 277.457031 71.242188 277.300781 71.574219 277.367188 C 71.996094 277.449219 72.304688 277.78125 72.601562 277.800781 C 73.582031 277.859375 75.21875 277.429688 76.085938 276.742188 C 77.441406 275.667969 78.039062 274.105469 78.757812 272.800781 C 78.566406 272.039062 78.671875 271.3125 78.820312 270.589844 C 78.410156 268.105469 76.988281 266.144531 74.574219 264.519531 C 72.832031 264.238281 70.574219 263.726562 68.695312 265.429688 C 67.867188 266.183594 66.648438 267.128906 66.28125 268.257812 C 66.203125 268.492188 66.265625 268.890625 66.234375 269.207031 C 66.105469 270.410156 66.117188 271.585938 66.332031 272.769531 C 67.097656 273.660156 67.351562 274.773438 68.089844 275.695312 " fill-opacity="1" fill-rule="evenodd"/></g></g></g><g clip-path="url(#d3aea8eb37)"><g clip-path="url(#12a2197326)"><g clip-path="url(#1c631d4183)"><path fill="#05abc4" d="M 72.511719 283.5625 C 72.644531 283.382812 72.757812 283.136719 72.96875 283.421875 C 72.957031 283.609375 72.660156 283.78125 72.511719 283.5625 Z M 70.699219 284.429688 C 70.632812 284.167969 70.933594 283.949219 71.160156 283.722656 C 71.167969 283.976562 70.898438 284.199219 70.699219 284.429688 Z M 69.742188 283.371094 C 69.242188 284.019531 69.265625 285.910156 70.121094 286.710938 C 70.9375 287.480469 71.324219 287.410156 72.355469 287.664062 C 77.164062 286.160156 72.644531 279.597656 69.742188 283.371094 " fill-opacity="1" fill-rule="evenodd"/></g></g></g><g clip-path="url(#8096179c24)"><g clip-path="url(#380112ec45)"><g clip-path="url(#6ea9616f1c)"><path fill="#05abc4" d="M 160.449219 218.644531 C 160.613281 218.671875 160.8125 218.425781 160.976562 218.453125 C 160.851562 218.269531 160.695312 218.320312 160.546875 218.339844 C 160.636719 218.453125 160.382812 218.53125 160.449219 218.644531 " fill-opacity="1" fill-rule="evenodd"/></g></g></g><g clip-path="url(#d67224995b)"><g clip-path="url(#b80c56b0ff)"><g clip-path="url(#03a4e15ced)"><path fill="#05abc4" d="M 170.320312 216.609375 C 170.882812 216.191406 171.785156 215.964844 171.980469 215.402344 C 170.820312 214.902344 169.863281 215.351562 168.460938 215.699219 C 166.367188 216.210938 164.359375 216.5625 162.605469 218.070312 C 163.59375 217.824219 164.710938 218.183594 165.722656 217.984375 C 167.304688 217.667969 168.65625 216.625 170.320312 216.609375 " fill-opacity="1" fill-rule="evenodd"/></g></g></g><g clip-path="url(#59178ce341)"><g clip-path="url(#a8e1ad8152)"><g clip-path="url(#235abffe19)"><path fill="#05abc4" d="M 76.175781 293.621094 C 76.335938 293.871094 75.859375 294.050781 75.65625 294.257812 C 75.34375 293.976562 75.894531 293.457031 76.175781 293.621094 Z M 71.035156 295.3125 C 70.984375 294.863281 71.289062 294.453125 71.75 294.0625 C 72.050781 294.515625 71.46875 295.15625 71.035156 295.3125 Z M 69 295.90625 C 68.574219 297.445312 69.089844 299.710938 70.550781 301.15625 C 71 301.597656 72.261719 301.933594 72.789062 302.109375 C 73.0625 302.203125 73.242188 302.421875 73.386719 302.433594 C 74.078125 302.488281 74.789062 301.949219 75.296875 301.828125 C 75.601562 301.753906 75.972656 301.890625 76.253906 301.75 C 78.019531 300.847656 79.253906 298.1875 78.40625 296.289062 C 78.082031 295.570312 77.46875 294.523438 76.964844 293.902344 C 75.433594 292.007812 73.386719 292.382812 71.210938 292.671875 C 69.894531 293.640625 69.441406 294.304688 69 295.90625 " fill-opacity="1" fill-rule="evenodd"/></g></g></g><g clip-path="url(#14a2fdf79b)"><g clip-path="url(#c2a38a0d90)"><g clip-path="url(#5236445e08)"><path fill="#05abc4" d="M 162.042969 223.519531 C 163.328125 222.875 164.726562 224.035156 165.929688 222.253906 C 165.855469 222.054688 165.710938 221.847656 165.683594 221.65625 C 164.546875 221.546875 162.03125 222.03125 162.042969 223.519531 " fill-opacity="1" fill-rule="evenodd"/></g></g></g><g clip-path="url(#5d66fd982f)"><g clip-path="url(#1427f66e42)"><g clip-path="url(#35dac29abd)"><path fill="#05abc4" d="M 179.113281 210.199219 C 179.296875 210.421875 179.5 210.503906 179.722656 210.398438 C 179.832031 210.21875 179.890625 210.035156 179.726562 209.824219 C 179.519531 209.882812 179.136719 210.039062 179.113281 210.199219 " fill-opacity="1" fill-rule="evenodd"/></g></g></g><g clip-path="url(#6117711481)"><g clip-path="url(#3829e7afff)"><g clip-path="url(#a406d6c0da)"><path fill="#05abc4" d="M 175.019531 214.359375 C 174.691406 214.117188 174.019531 214.421875 173.835938 214.730469 C 174.140625 215.207031 175.007812 214.734375 175.019531 214.359375 " fill-opacity="1" fill-rule="evenodd"/></g></g></g><g clip-path="url(#c05706569f)"><g clip-path="url(#588468a6e2)"><g clip-path="url(#ad40aa7986)"><path fill="#05abc4" d="M 198.417969 201.699219 C 198.058594 201.632812 197.152344 202.058594 197.746094 202.574219 C 198.140625 202.523438 198.597656 202.019531 198.417969 201.699219 " fill-opacity="1" fill-rule="evenodd"/></g></g></g><g clip-path="url(#9214eb46a7)"><g clip-path="url(#2542a850d2)"><g clip-path="url(#9ef276e746)"><path fill="#05abc4" d="M 165.425781 231.074219 C 165.476562 231.167969 165.375 231.238281 165.269531 231.3125 C 165.410156 231.558594 165.601562 231.367188 165.769531 231.367188 C 165.796875 231.203125 165.609375 230.941406 165.425781 231.074219 " fill-opacity="1" fill-rule="evenodd"/></g></g></g><g clip-path="url(#8ae77cc8bd)"><g clip-path="url(#cfa6c7841e)"><g clip-path="url(#e1e116fe55)"><path fill="#05abc4" d="M 210.960938 195.722656 C 210.234375 196.175781 208.925781 196.476562 208.980469 197.523438 C 209.449219 197.679688 210.160156 197.503906 210.789062 197.226562 C 212.429688 196.496094 214.46875 195.742188 214.765625 194.636719 C 214.597656 194.425781 214.433594 194.21875 214.265625 194.007812 C 213.105469 194.027344 212.132812 194.992188 210.960938 195.722656 " fill-opacity="1" fill-rule="evenodd"/></g></g></g><g clip-path="url(#fac97e5230)"><g clip-path="url(#8e30bf945d)"><g clip-path="url(#2539224597)"><path fill="#05abc4" d="M 155.191406 254.441406 C 155.242188 254.839844 155.753906 255.246094 156.082031 254.988281 C 155.871094 254.796875 155.964844 254.636719 155.886719 254.457031 C 155.65625 254.449219 155.4375 254.316406 155.191406 254.441406 " fill-opacity="1" fill-rule="evenodd"/></g></g></g><g clip-path="url(#3c321ed051)"><g clip-path="url(#ab1e917393)"><g clip-path="url(#886bac442f)"><path fill="#05abc4" d="M 211.414062 215.496094 C 210.921875 216.054688 210.179688 216.121094 210.214844 216.5625 C 210.820312 216.402344 212.058594 216.152344 212.292969 215.597656 C 211.992188 215.625 211.6875 215.699219 211.414062 215.496094 " fill-opacity="1" fill-rule="evenodd"/></g></g></g><g clip-path="url(#a010e05b47)"><g clip-path="url(#d055857c64)"><g clip-path="url(#f5f8e696ef)"><path fill="#05abc4" d="M 213.53125 215.296875 C 214.179688 215.390625 215.816406 215.152344 215.636719 214.078125 C 214.710938 213.675781 214.179688 214.550781 213.53125 215.296875 " fill-opacity="1" fill-rule="evenodd"/></g></g></g><g clip-path="url(#81143fdefe)"><g clip-path="url(#dc631d2ea7)"><g clip-path="url(#9b2aacc1b1)"><path fill="#05abc4" d="M 227.082031 208.863281 C 227.253906 208.828125 227.414062 208.917969 227.613281 208.671875 C 227.472656 208.246094 226.921875 208.605469 227.082031 208.863281 " fill-opacity="1" fill-rule="evenodd"/></g></g></g><g clip-path="url(#dbea3c8993)"><g clip-path="url(#c3439e880d)"><g clip-path="url(#2f2aecb717)"><path fill="#05abc4" d="M 227.800781 210.339844 C 228.144531 210.675781 229.175781 210.59375 229.054688 209.914062 C 228.667969 210 228.015625 209.925781 227.800781 210.339844 " fill-opacity="1" fill-rule="evenodd"/></g></g></g><g clip-path="url(#cc1f8a0265)"><g clip-path="url(#d24060658e)"><g clip-path="url(#8ea67dad34)"><path fill="#05abc4" d="M 113.429688 311.03125 C 112.460938 313.828125 113.125 316.621094 114.496094 319.398438 C 114.171875 320.078125 114.078125 320.785156 114.503906 321.554688 C 114.792969 321.414062 115.035156 321.699219 115.324219 321.585938 C 116.03125 320.804688 115.46875 319.707031 115.09375 319.148438 C 115.5625 318.167969 115.144531 316.832031 115.011719 315.460938 C 114.859375 313.886719 115.511719 311.734375 113.972656 310.710938 C 113.613281 310.765625 113.660156 311.308594 113.429688 311.03125 " fill-opacity="1" fill-rule="evenodd"/></g></g></g><g clip-path="url(#68776cee58)"><g clip-path="url(#2801b624c5)"><g clip-path="url(#872907e590)"><path fill="#05abc4" d="M 258.121094 203.109375 C 257.96875 203.609375 257.21875 203.605469 257.171875 203.0625 C 257.433594 202.824219 257.667969 202.808594 257.898438 202.828125 C 257.972656 202.921875 258.046875 203.015625 258.121094 203.109375 Z M 264.070312 200.429688 C 263.042969 200.402344 262.046875 200.675781 260.941406 200.640625 C 258.699219 200.574219 256.402344 200.34375 254.128906 202.523438 C 253.171875 203.4375 250.941406 206.015625 251.730469 207.382812 C 252.574219 208.84375 255.128906 208.570312 256.320312 208.292969 C 257.699219 207.964844 260.351562 206.605469 261.882812 205.695312 C 263.019531 205.019531 264.042969 204.238281 265.144531 203.789062 C 267.070312 203 270.125 202.976562 269.222656 200.324219 C 267.851562 199.015625 265.875 199.25 264.070312 200.429688 " fill-opacity="1" fill-rule="evenodd"/></g></g></g><g clip-path="url(#ee40b8b51b)"><g clip-path="url(#ab1e25061a)"><g clip-path="url(#d16c822da3)"><path fill="#05abc4" d="M 84.921875 98.859375 C 84.738281 99.007812 84.550781 99.15625 84.363281 99.300781 C 84.488281 99.773438 84.828125 100.347656 84.75 100.359375 C 85.671875 100.199219 85.128906 99.414062 84.921875 98.859375 " fill-opacity="1" fill-rule="evenodd"/></g></g></g><g clip-path="url(#67e2b6e6f6)"><g clip-path="url(#cb8ceb362d)"><g clip-path="url(#cd22a94a2a)"><path fill="#05abc4" d="M 60.882812 130.339844 C 61.550781 129.757812 60.53125 128.539062 60.097656 128.917969 C 59.789062 129.1875 60.332031 130.34375 60.882812 130.339844 " fill-opacity="1" fill-rule="evenodd"/></g></g></g><g clip-path="url(#2a3dc76360)"><g clip-path="url(#20b94b328a)"><g clip-path="url(#30aa56e875)"><path fill="#05abc4" d="M 61.730469 153.332031 C 63.824219 153.382812 66.707031 151.117188 67.601562 149.695312 C 67.972656 149.109375 68.621094 148.566406 68.875 148 C 69.355469 146.929688 69.371094 144.976562 69.417969 143.816406 C 69.433594 143.480469 69.59375 143.15625 69.589844 142.882812 C 69.554688 140.59375 68.066406 138.828125 66.800781 137.363281 C 65.285156 136.390625 63.664062 136.332031 62.117188 135.621094 C 61.953125 135.980469 61.589844 135.652344 61.296875 135.589844 C 60.074219 135.707031 58.691406 135.640625 57.546875 136.742188 C 57.300781 136.75 57.222656 136.691406 57.101562 136.757812 C 56.960938 136.890625 56.71875 137.339844 56.601562 137.269531 C 54.832031 137.722656 54.527344 139.519531 53.21875 140.75 C 52.917969 141.699219 53.316406 142.347656 52.808594 143.238281 C 52.949219 144.6875 52.738281 145.921875 53.042969 147.261719 C 54.144531 148.816406 54.582031 150.382812 55.835938 151.640625 C 56.886719 152.691406 58.367188 152.859375 59.546875 153.019531 C 60.253906 153.113281 61.117188 153.316406 61.730469 153.332031 " fill-opacity="1" fill-rule="evenodd"/></g></g></g><g clip-path="url(#39ea746348)"><g clip-path="url(#c1b6a9e54a)"><g clip-path="url(#0eef6e6cd0)"><path fill="#05abc4" d="M 56.601562 137.269531 C 56.691406 137.207031 56.5625 137.132812 56.601562 137.269531 " fill-opacity="1" fill-rule="evenodd"/></g></g></g><g clip-path="url(#713868741a)"><g clip-path="url(#f8cf278ba8)"><g clip-path="url(#2830706267)"><path fill="#05abc4" d="M 180.023438 148.726562 C 179.464844 148.242188 180.082031 147.6875 180.542969 147.515625 C 181.136719 147.980469 180.480469 148.589844 180.023438 148.726562 Z M 174.660156 150.140625 C 174.355469 149.554688 174.871094 148.53125 175.488281 148.457031 C 175.671875 149.050781 175.390625 149.855469 174.660156 150.140625 Z M 145.511719 171.457031 C 145.214844 171.613281 145.308594 171.816406 145.011719 171.972656 C 144.648438 171.917969 144.148438 171.289062 144.179688 170.925781 C 144.472656 170.761719 144.753906 170.710938 145.03125 170.707031 C 145.257812 170.964844 145.441406 171.21875 145.511719 171.457031 Z M 126.5 165.277344 C 125.796875 164.882812 124.820312 163.90625 125.824219 163.425781 C 126.316406 163.546875 126.679688 163.929688 126.976562 164.445312 C 126.871094 164.730469 126.78125 165.015625 126.5 165.277344 Z M 68.355469 178.445312 C 68.410156 177.269531 69.207031 176.175781 70.011719 175.085938 C 70.179688 176.289062 69.660156 177.410156 68.355469 178.445312 Z M 56.152344 174.824219 C 56 174.46875 56.398438 174.175781 56.644531 173.867188 C 56.898438 174.234375 56.363281 174.511719 56.152344 174.824219 Z M 47.820312 185.535156 C 47.804688 185.152344 48.097656 184.804688 48.449219 184.464844 C 48.675781 184.871094 48.136719 185.191406 47.820312 185.535156 Z M 164.9375 234.191406 C 164.585938 234.265625 164.300781 234.234375 164.160156 233.785156 C 164.511719 233.433594 165.042969 233.785156 164.9375 234.191406 Z M 169.570312 231.425781 C 169.894531 232.753906 168.792969 234.25 167.425781 235.175781 C 167.472656 233.847656 168.421875 232.625 169.570312 231.425781 Z M 182.675781 232.171875 C 182.519531 231.527344 183.578125 231.621094 183.941406 231.617188 C 185.175781 232.472656 186.570312 233.210938 187.902344 233.023438 C 188.417969 232.953125 189.121094 232.285156 189.546875 233.085938 C 187.863281 234.414062 186.179688 233.40625 184.507812 232.761719 C 183.878906 232.519531 183.140625 232.691406 182.675781 232.171875 Z M 202.144531 239.355469 C 201.871094 239.796875 200.914062 239.757812 200.78125 239.070312 C 201.277344 238.789062 201.722656 238.980469 202.144531 239.355469 Z M 177.390625 227.949219 C 177.582031 227.742188 177.730469 227.921875 177.875 228.128906 C 177.757812 228.238281 177.660156 228.160156 177.539062 228.28125 C 177.394531 228.160156 177.441406 228.058594 177.390625 227.949219 Z M 98.351562 217.089844 C 98.152344 217.335938 97.988281 217.316406 97.851562 217.03125 C 97.945312 216.957031 98.035156 216.882812 98.128906 216.808594 C 98.203125 216.902344 98.277344 216.996094 98.351562 217.089844 Z M 95.125 216.464844 C 95.21875 216.390625 95.3125 216.316406 95.40625 216.242188 C 95.671875 216.46875 95.285156 216.777344 95.125 216.464844 Z M 93.441406 216.777344 C 93.304688 216.402344 93.691406 216.089844 94 215.765625 C 94.171875 216.144531 93.683594 216.449219 93.441406 216.777344 Z M 93.882812 217.335938 C 93.964844 217.027344 94.199219 216.738281 94.429688 216.449219 C 94.550781 216.777344 94.148438 217.050781 93.882812 217.335938 Z M 103.90625 260.914062 C 103.585938 260.476562 104.25 260.152344 104.480469 259.777344 C 104.722656 260.203125 104.085938 260.535156 103.90625 260.914062 Z M 113.46875 289.15625 C 113.21875 289.222656 113.167969 288.789062 113.457031 288.710938 C 113.695312 288.886719 113.390625 289 113.46875 289.15625 Z M 60.476562 172.53125 C 60.710938 172.910156 60.1875 173.488281 59.84375 173.597656 C 59.945312 173.230469 60.074219 172.863281 60.476562 172.53125 Z M 117.617188 148.785156 C 117.785156 149.164062 117.382812 149.476562 117.179688 149.8125 C 117.089844 149.441406 117.417969 149.121094 117.617188 148.785156 Z M 121.363281 147.628906 C 121.566406 147.554688 121.773438 148.007812 121.5 148.089844 C 121.183594 148.058594 121.351562 147.800781 121.363281 147.628906 Z M 141.953125 163.820312 C 142.726562 163.835938 143.308594 165.0625 143.324219 165.691406 C 143.882812 166.148438 144.542969 165.734375 145.101562 166.210938 C 144.746094 166.796875 143.972656 166.546875 143.445312 166.84375 C 142.683594 165.902344 141.886719 164.882812 141.953125 163.820312 Z M 139.253906 159.703125 C 139.589844 159.453125 139.238281 159.976562 139.585938 160.125 C 138.839844 161.117188 138.914062 162.539062 137.890625 163.289062 C 137.914062 162.042969 138.71875 160.890625 139.253906 159.703125 Z M 177.472656 142.789062 C 176.464844 143.355469 175.347656 144.148438 174.695312 144.878906 C 173.183594 146.570312 171.851562 149.796875 171.832031 151.589844 C 171.820312 152.902344 172.667969 154.460938 173.097656 155.476562 C 172.679688 156.253906 172.898438 157.101562 172.128906 157.839844 C 171.902344 157.734375 171.992188 157.59375 171.835938 157.613281 C 170.378906 159.125 167.507812 160.945312 166.128906 162.601562 C 165.363281 162.746094 164.90625 163.375 164.691406 163.515625 C 164.242188 163.8125 163.492188 163.910156 163.019531 164.273438 C 162.96875 164.3125 162.875 164.609375 162.851562 164.636719 C 162.113281 165.347656 161.171875 165.996094 160.53125 166.589844 C 160.210938 167.203125 159.128906 168.453125 158.574219 168.710938 C 157.054688 169.417969 155.285156 170.738281 154.128906 170.417969 C 153.726562 170.84375 153.386719 170.449219 152.960938 170.664062 C 151.871094 171.21875 150.253906 171.761719 149.0625 171.484375 C 148.082031 171.261719 146.640625 170.226562 146.414062 169.152344 C 146.144531 167.882812 147.964844 167.296875 148.789062 166.699219 C 149.496094 166.183594 149.65625 165.371094 149.519531 164.183594 C 149.144531 164.269531 148.65625 164.625 148.183594 164.21875 C 146.734375 164.59375 144.738281 165.578125 143.984375 163.800781 C 143.519531 162.707031 143.597656 161.160156 143.273438 160.039062 C 144.304688 155.761719 145.921875 151.550781 147.148438 147.292969 C 146.816406 145.585938 146.867188 143.921875 146.527344 142.214844 C 147.230469 139.667969 147.640625 136.851562 147.949219 134.257812 C 148.050781 133.398438 148.695312 132.300781 147.820312 131.515625 C 147.566406 131.730469 147.679688 131.800781 147.417969 131.726562 C 147.355469 131.84375 147.621094 132 147.5 132.113281 C 146.875 132.644531 146.804688 133.453125 146.503906 134.15625 C 146.007812 135.308594 145.320312 136.441406 144.957031 137.65625 C 144.542969 139.046875 144.695312 140.699219 143.273438 141.839844 C 143.160156 141.890625 143.0625 141.84375 142.9375 141.992188 C 142.964844 142.058594 142.945312 142.117188 142.855469 142.171875 C 142.832031 142.738281 142.582031 143.28125 141.972656 143.78125 C 140.953125 147.429688 141.316406 151.234375 140.441406 154.894531 C 139.867188 155.863281 139.851562 156.898438 139.148438 157.851562 C 138.871094 159.738281 137.214844 162.972656 135.3125 164.199219 C 131.269531 166.8125 126.511719 160.894531 124.207031 157.65625 C 124.8125 154.675781 124.058594 151.875 122.234375 148.871094 C 122.304688 148.753906 122.621094 149.007812 122.5 148.773438 C 121.765625 147.9375 121.011719 146.597656 120.003906 146.203125 C 119.433594 146.0625 118.867188 146.710938 118.429688 146.65625 C 117.929688 147.410156 117.75 148.695312 116.90625 149.460938 C 115.757812 150.503906 113.980469 150.199219 113.402344 148.488281 C 113.085938 148.75 113.40625 149.082031 113.175781 149.351562 C 112.230469 149.273438 111.175781 147.480469 111.335938 146.601562 C 110.660156 145.519531 110.222656 143.964844 109.675781 143.367188 C 109.75 143.25 110.0625 143.503906 109.941406 143.273438 C 109.71875 143.203125 109.511719 142.972656 109.304688 142.753906 C 109.375 142.699219 109.433594 142.746094 109.5 142.714844 C 109.421875 142.578125 108.976562 142.515625 109.292969 142.308594 C 108.636719 141.746094 108.695312 140.777344 108.785156 140.09375 C 108.433594 139.882812 108.75 139.199219 108.746094 138.757812 C 108.742188 136.867188 108.410156 134.789062 108.089844 132.914062 C 107.925781 131.96875 108.148438 130.984375 107.960938 130.171875 C 107.746094 129.242188 107.253906 128.222656 106.871094 127.507812 C 106.726562 127.238281 106.113281 127.105469 106.136719 126.726562 C 105.808594 127.105469 105.351562 126.597656 104.941406 126.652344 C 103.988281 126.777344 103.625 127.730469 102.929688 128.132812 C 102.46875 129.328125 102.441406 130.570312 103.070312 131.890625 C 102.90625 133.441406 103.886719 135.445312 103.398438 136.75 C 103.636719 136.761719 103.484375 137.261719 103.882812 137.503906 C 103.945312 137.699219 103.742188 137.867188 103.878906 138.070312 C 105.066406 139.195312 104.691406 140.976562 105.578125 142.074219 C 105.40625 143.457031 105.941406 144.617188 105.894531 145.914062 C 105.863281 146.824219 105.347656 147.65625 105.148438 148.554688 C 104.925781 149.566406 105.121094 150.710938 104.539062 151.65625 C 104.308594 153.53125 104.675781 155.476562 104.894531 157.40625 C 105.519531 158.679688 105.976562 159.9375 105.546875 161.09375 C 106.058594 163.152344 105.378906 165.375 103.355469 166.929688 C 103.023438 166.875 102.664062 167.046875 102.292969 167.316406 C 101.890625 167.160156 101.71875 167.292969 101.335938 167.394531 C 100.976562 167.496094 101.035156 167.035156 100.820312 166.894531 C 100.636719 166.773438 100.578125 167.023438 100.390625 166.78125 C 100.128906 166.441406 100.3125 165.949219 99.949219 165.652344 C 100.8125 163.03125 102.664062 160.304688 100.941406 157.585938 C 100.65625 157.84375 100.433594 157.578125 100.203125 157.371094 C 99.28125 157.5 98.402344 157.238281 97.375 158.253906 C 96.40625 160.6875 96.980469 163.386719 96.832031 165.738281 C 96.792969 165.617188 96.507812 165.984375 96.539062 166.085938 C 96.214844 168.753906 92.554688 167.8125 90.820312 169.484375 C 90.652344 169.292969 90.425781 169.601562 90.265625 169.359375 C 89.015625 170.175781 87.660156 170.765625 85.945312 171.082031 C 85.78125 170.964844 85.964844 170.703125 85.707031 170.925781 C 85.488281 171.402344 85.261719 171.710938 84.828125 171.96875 C 84.503906 172.160156 84.222656 172.007812 83.796875 172.101562 C 83.761719 172.113281 83.308594 172.367188 83.324219 172.367188 C 82.9375 172.363281 81.761719 173.683594 81.175781 173.386719 C 80.03125 173.902344 80.1875 175.039062 79.679688 175.941406 C 79.484375 176.289062 79.296875 176.351562 79.398438 176.734375 C 78.464844 176.933594 77.5 177.433594 76.65625 176.863281 C 76.199219 174.992188 74.148438 174.824219 72.941406 173.328125 C 72.117188 173.386719 71.605469 172.9375 70.867188 173.152344 C 71.019531 173.507812 70.621094 173.800781 70.375 174.113281 C 70.191406 174.246094 70.058594 173.917969 69.875 174.054688 C 68.570312 175.273438 67.378906 176.625 66.453125 177.910156 C 65.339844 177.265625 64.683594 175.980469 64.25 175.5625 C 64.320312 175.507812 64.386719 175.453125 64.457031 175.398438 C 63.609375 175.164062 63.195312 173.925781 62.699219 173.609375 C 62.988281 173.40625 63.210938 173.789062 63.308594 173.808594 C 63.308594 172.710938 62.699219 171.4375 61.523438 171.128906 C 60.507812 169.257812 59.949219 167.804688 59.359375 165.679688 C 59.0625 165.515625 58.769531 165.308594 58.5 164.882812 C 58.472656 164.710938 58.597656 164.554688 58.683594 164.398438 C 57.863281 163.726562 57.167969 162.707031 56.144531 162.773438 C 56.183594 163.683594 56.980469 164.679688 57.507812 165.785156 C 57.601562 165.980469 57.566406 166.246094 57.6875 166.4375 C 57.914062 166.796875 58.363281 167.054688 58.589844 167.429688 C 59.445312 168.855469 60.355469 171.46875 59.847656 172.457031 C 59.328125 173.46875 58.289062 173.292969 57.394531 173.382812 C 56.777344 172.835938 56.171875 171.90625 55.273438 171.996094 C 55.367188 171.816406 55.324219 171.621094 55.148438 171.410156 C 55.082031 172.226562 55.835938 173.136719 55.933594 173.972656 C 55.582031 174.371094 55.675781 174.859375 55.289062 175.167969 C 54.867188 175.507812 54.414062 175.308594 54.0625 175.34375 C 53.238281 175.429688 52.082031 175.804688 51.472656 175.808594 C 51.300781 175.808594 51.207031 175.59375 51.058594 175.570312 C 50.488281 175.484375 50.046875 175.792969 49.621094 175.914062 C 48.34375 178.382812 51.714844 182.125 48.226562 184.1875 C 47.839844 184.417969 47.234375 184.359375 46.902344 184.667969 C 47.019531 185.285156 47.363281 185.578125 47.871094 186.175781 C 47.675781 188.183594 48.503906 190.304688 48.308594 192.3125 C 48.554688 192.296875 48.828125 192.761719 48.988281 193.027344 C 50.089844 193.140625 50.8125 193.789062 51.472656 194.578125 C 51.90625 194.601562 52.648438 194.90625 52.652344 195.347656 C 53.5 195.253906 54.023438 195.878906 54.722656 196.09375 C 55.453125 195.589844 56.355469 196.175781 56.898438 196.125 C 56.851562 196.117188 56.800781 196.097656 56.753906 196.074219 C 57.828125 195.941406 58.96875 195.519531 60.277344 195.78125 C 60.988281 195.261719 61.890625 195.503906 62.292969 195.886719 C 63.949219 195.132812 65.992188 193.445312 67.261719 196.265625 C 67.324219 197.625 69.042969 198.894531 68.71875 200.113281 C 69.230469 200.410156 69.363281 200.703125 69.898438 200.882812 C 70.332031 202.613281 71.515625 205.242188 69.488281 206.667969 C 69.382812 206.488281 69.265625 206.410156 69.140625 206.375 C 68.949219 206.859375 68.5625 206.632812 68.457031 206.804688 C 68.429688 206.929688 68.535156 207 68.679688 207.085938 C 68.398438 207.347656 68.636719 207.671875 68.203125 207.917969 C 68.257812 208.910156 67.96875 209.695312 67.027344 210.445312 C 66.234375 211.644531 65.707031 212.871094 65.023438 214.082031 C 64.738281 214.101562 64.835938 214.28125 64.546875 214.34375 C 64.417969 214.925781 64.542969 215.414062 64.472656 216.113281 C 64.066406 216.070312 64.296875 216.132812 64.316406 216.347656 C 63.855469 216.578125 63.394531 217.035156 63.492188 217.460938 C 63.515625 217.488281 63.9375 217.238281 63.867188 217.503906 C 63.332031 218.144531 63.398438 219.035156 63.648438 219.949219 C 63.539062 220.253906 63.222656 220.535156 63.105469 220.839844 C 63.355469 220.753906 62.9375 221.082031 63.269531 221.046875 C 61.804688 222.546875 62.15625 224.417969 61.21875 226.203125 C 61.496094 227.15625 61.394531 227.945312 61.808594 228.808594 C 62.039062 229.289062 62.570312 229.53125 62.820312 229.9375 C 62.8125 229.929688 62.765625 230.28125 62.777344 230.3125 C 62.832031 230.511719 63.109375 230.613281 63.164062 230.800781 C 63.050781 230.855469 62.953125 230.808594 62.828125 230.953125 C 63.089844 231.128906 62.996094 231.210938 63.285156 231.386719 C 63.324219 231.625 62.792969 232.128906 63.132812 232.195312 C 63.082031 232.101562 63.121094 232.023438 63.160156 231.945312 C 63.273438 232.265625 63.5625 232.78125 63.171875 232.957031 C 63.464844 233.105469 63.382812 233.089844 63.65625 233.140625 C 63.257812 233.460938 64.300781 234.121094 63.847656 234.242188 C 64.1875 234.113281 64.148438 234.414062 64.542969 234.257812 C 64.550781 234.628906 64.414062 234.988281 64.496094 235.203125 C 64.910156 235.183594 65.175781 235.46875 65.304688 235.359375 C 65.222656 236.101562 66.035156 236 65.996094 236.515625 C 67.1875 236.445312 67.660156 238.691406 68.195312 239.433594 C 68.097656 239.609375 68.296875 239.953125 68.015625 239.921875 C 68.175781 240.039062 68.601562 240.300781 68.386719 240.535156 C 68.160156 240.515625 68.257812 240.308594 68.179688 240.128906 C 67.9375 240.441406 67.941406 240.382812 67.636719 240.449219 C 67.859375 240.605469 68.796875 240.601562 68.550781 241.3125 C 68.160156 241.210938 68.304688 241.742188 68.324219 242.175781 C 69.105469 242.398438 69.890625 241.796875 70.496094 242.046875 C 70.132812 241.621094 71.085938 241.347656 71.261719 241.4375 C 71.152344 241.550781 70.859375 241.644531 71.097656 241.796875 C 71.527344 241.945312 71.78125 241.789062 72.140625 241.535156 C 72.566406 241.578125 72.902344 241.847656 73.152344 242.097656 C 73.101562 241.660156 73.507812 241.875 73.738281 241.972656 C 73.890625 241.589844 74.4375 240.96875 74.9375 240.90625 C 75.019531 241.0625 74.714844 241.175781 74.953125 241.351562 C 75.226562 241.179688 75.492188 241.074219 75.746094 241.0625 C 75.890625 241.226562 76.023438 241.390625 76.007812 241.535156 C 77.117188 241.457031 78.238281 241.277344 79.25 242.035156 C 79.699219 242.984375 78.519531 243.820312 78.558594 244.746094 C 78.605469 246.023438 80.164062 246.511719 81.152344 247.011719 C 81.386719 247.726562 82.257812 247.839844 82.1875 248.460938 C 82.4375 248.414062 82.101562 248.003906 82.414062 248.171875 C 81.761719 249.722656 82.40625 251.3125 81.671875 252.96875 C 82.582031 253.46875 81.933594 254.734375 81.757812 255.515625 C 80.394531 256.390625 79.65625 258.234375 81.410156 259.660156 C 82.878906 260.125 84.539062 258.910156 86.074219 258.800781 C 86.324219 259.378906 86.699219 258.871094 86.992188 259.097656 C 87.335938 259.363281 87.34375 259.589844 87.753906 259.628906 C 87.394531 260.308594 88.308594 260.445312 88.695312 260.816406 C 88.789062 260.953125 88.496094 261.046875 88.527344 261.175781 C 88.933594 261.6875 88.863281 262.144531 88.996094 262.625 C 89.664062 263.378906 89.339844 264.019531 89.765625 264.742188 C 89.367188 265.816406 90.4375 267.0625 89.949219 268.125 C 90.308594 269.035156 90.300781 270.664062 91.257812 271.636719 C 91.328125 272.890625 90.585938 274.148438 89.785156 275.082031 C 89.152344 275.816406 88.152344 276.382812 87.382812 277.214844 C 86.703125 277.949219 86.363281 279.007812 85.84375 279.578125 C 85.730469 279.699219 85.628906 279.628906 85.507812 279.726562 C 84.339844 280.699219 83.945312 282.542969 82.796875 283.476562 C 82.046875 284.078125 80.800781 284.820312 80.796875 285.972656 C 81.039062 286.878906 81.472656 287.441406 82.335938 287.480469 C 83.265625 286.886719 83.53125 285.972656 84.140625 285.023438 C 84.644531 284.234375 85.320312 283.644531 85.898438 282.945312 C 86.722656 281.945312 87.019531 280.59375 87.847656 279.804688 C 88.460938 279.21875 89.726562 278.597656 90.679688 277.785156 C 92 276.652344 93.117188 275.695312 94.488281 274.988281 C 94.738281 275.296875 94.71875 274.953125 94.933594 274.976562 C 95.769531 275.410156 96.597656 275.949219 97.375 276.90625 C 98.140625 277.097656 98.71875 277.578125 99.5 277.722656 C 100.242188 277.855469 101.222656 277.984375 101.628906 277.964844 C 103.84375 277.859375 105.085938 276.234375 106.773438 274.5625 C 107.371094 274.339844 107.921875 274.511719 108.472656 274.695312 C 108.949219 275.433594 108.820312 276.019531 109.550781 276.910156 C 109.984375 278.453125 110.730469 279.65625 110.523438 281.144531 C 111.621094 283.40625 110.667969 285.429688 112.109375 287.730469 C 111.964844 289.179688 111.722656 290.789062 112.679688 292.171875 C 113.445312 292.492188 113.597656 294.71875 114.800781 294.128906 C 115.480469 293.796875 115.195312 292.777344 115.117188 291.945312 C 114.972656 290.488281 114.382812 288.492188 113.058594 287.777344 C 112.941406 287.847656 112.820312 288.007812 112.722656 287.929688 C 112.707031 287.683594 112.761719 287.679688 113.015625 287.582031 C 112.824219 287.371094 112.90625 287.1875 112.644531 286.96875 C 112.757812 286.136719 112.34375 285.242188 112.054688 284.363281 C 112.386719 283.304688 112.117188 282.171875 111.925781 281.050781 C 112.453125 278.953125 111.726562 277.066406 112.1875 274.929688 C 111.789062 274.796875 112.046875 274.199219 111.800781 273.871094 C 112.550781 271.488281 115.542969 268.878906 117.863281 267.464844 C 118.023438 267.757812 118.207031 267.800781 118.390625 267.84375 C 119.753906 267.097656 121.136719 265.273438 122.105469 264.78125 C 122.007812 264.914062 122.195312 264.832031 122.285156 264.867188 C 122.3125 265.324219 122.578125 265.839844 122.542969 266.480469 C 122.535156 266.640625 122.285156 266.839844 122.292969 267.023438 C 122.300781 267.265625 122.542969 267.625 122.566406 267.941406 C 122.585938 268.210938 122.4375 268.496094 122.480469 268.691406 C 122.65625 269.527344 123.375 270.773438 123.777344 271.757812 C 124.414062 273.316406 125.5625 275.574219 127.261719 274 C 129.429688 273.6875 128.484375 271.25 128.195312 269.730469 C 128.171875 269.609375 128.335938 269.449219 128.308594 269.300781 C 128.238281 268.886719 127.816406 268.492188 127.742188 268.15625 C 127.636719 267.691406 127.726562 266.933594 127.636719 266.304688 C 127.539062 265.597656 127.324219 264.945312 127.226562 264.355469 C 126.816406 261.839844 129.203125 262.34375 130.457031 263.839844 C 130.464844 264.324219 130.40625 264.804688 130.230469 265.273438 C 130.65625 265.761719 131.058594 266.003906 131.601562 266.570312 C 132.269531 266.933594 133.011719 266.761719 133.675781 266.746094 C 134.117188 266.734375 134.8125 267.207031 135.023438 266.582031 C 134.8125 266.222656 134.53125 266.472656 134.304688 266.246094 C 134.054688 265.753906 134.21875 265.308594 134.210938 264.839844 C 133.609375 264 133.382812 263.730469 132.757812 263.152344 C 132.730469 262.472656 132.519531 261.773438 132.609375 261.105469 C 131.9375 260.488281 131.769531 258.898438 130.617188 258.023438 C 130.238281 257.734375 129.742188 257.695312 129.425781 257.378906 C 129.074219 257.027344 128.671875 256.386719 128.511719 255.941406 C 127.996094 254.515625 128.238281 253.433594 129.429688 252.367188 C 130.820312 251.675781 132.40625 252.183594 133.609375 251.328125 C 134.082031 251.394531 134.546875 251.660156 134.664062 252.082031 C 135.742188 252.382812 136.472656 252.601562 137.300781 253.402344 C 137.535156 253.195312 137.730469 253.335938 137.957031 253.222656 C 137.964844 253.84375 138.914062 253.4375 139.121094 254.117188 C 140.050781 253.945312 140.949219 254.027344 141.820312 254.363281 C 142.390625 254.175781 142.96875 253.949219 143.492188 254.175781 C 144.832031 253.578125 146.433594 253.570312 147.617188 252.492188 C 147.722656 252.839844 147.9375 252.257812 148.046875 252.605469 C 148.507812 252.113281 148.882812 252.105469 149.46875 251.820312 C 149.65625 251.597656 150.046875 251.167969 150.472656 251.363281 C 150.449219 251.171875 150.289062 250.960938 150.601562 250.808594 C 150.855469 250.609375 151.011719 251.289062 151.28125 250.949219 C 151.746094 250.140625 153.285156 249.632812 154.164062 250.140625 C 155.753906 248.804688 157.707031 249.019531 158.53125 250.765625 C 160.992188 250.925781 161.886719 254.582031 164.039062 254.699219 C 164.460938 254.347656 164.8125 254.613281 165.210938 254.453125 C 166.234375 253.847656 166.617188 252.921875 167.488281 252.304688 C 168.175781 251.816406 169.109375 251.699219 169.648438 251.15625 C 170.425781 250.378906 170.203125 248.660156 171.730469 248.480469 C 171.933594 247.707031 173.347656 247.3125 173.992188 247.027344 C 175.035156 246.5625 176.035156 245.746094 177.113281 245.230469 C 178.914062 244.371094 180.804688 243.847656 182.078125 242.882812 C 183.691406 242.648438 185.3125 242.3125 186.835938 242.859375 C 187.042969 242.714844 187.230469 242.757812 187.433594 242.613281 C 188.132812 242.789062 188.855469 242.78125 189.605469 242.480469 C 191.597656 242.902344 193.644531 242.238281 195.433594 243.085938 C 196.792969 244.140625 198.273438 244.140625 199.773438 243.964844 C 202.941406 244.738281 206.277344 244.039062 209.570312 243.695312 C 211.890625 243.820312 213.777344 242.253906 216.269531 242.246094 C 216.621094 242.246094 217.085938 242.488281 217.507812 242.515625 C 218.859375 242.605469 220.5625 241.941406 222.046875 241.640625 C 223.980469 241.25 226.238281 241.65625 227.09375 239.113281 C 226.871094 238.707031 226.484375 238.28125 226.347656 237.886719 C 224.929688 237.421875 223.183594 237.210938 221.78125 238.441406 C 220.976562 238.28125 220.152344 238.09375 219.675781 239.085938 C 218.625 239.460938 217.519531 238.421875 216.628906 239.117188 C 215.847656 238.925781 214.988281 239.402344 214.222656 239.09375 C 213.664062 237.53125 210.824219 240.015625 209.871094 238.339844 C 206.800781 238.722656 203.730469 239.136719 200.738281 238.875 C 199.667969 238.523438 199.09375 237.441406 198.242188 236.875 C 197.492188 236.378906 196.449219 236.21875 195.644531 235.753906 C 195.417969 235.621094 195.226562 235.367188 195.007812 235.234375 C 193.726562 234.46875 192.199219 233.59375 190.800781 232.660156 C 189.335938 231.6875 188.226562 232.074219 186.78125 231.753906 C 185.882812 231.554688 185.269531 230.984375 184.574219 230.550781 C 183.535156 229.898438 182.449219 229.648438 181.308594 229.160156 C 180.320312 229.765625 176.867188 229.046875 178.15625 227.339844 C 177.929688 227.308594 177.976562 227.53125 177.863281 227.6875 C 176.734375 227.902344 175.972656 228.316406 174.953125 228.175781 C 174.289062 228.082031 173.632812 227.734375 172.964844 227.820312 C 170.421875 228.140625 168.316406 230.644531 167.214844 232.613281 C 166.75 233.441406 166.210938 234.902344 165.132812 234.148438 C 164.898438 233.402344 164.480469 232.636719 164.753906 231.949219 C 163.554688 230.359375 163.277344 227.625 161.585938 226.386719 C 161.390625 225.539062 161.285156 224.703125 161.179688 223.867188 C 161.410156 223.960938 162.046875 223.050781 161.667969 222.90625 C 161.535156 223.125 161.28125 223.664062 161.136719 223.671875 C 160.988281 223.527344 161.277344 223.433594 161.183594 223.296875 C 160.632812 223.65625 160.1875 223.105469 159.722656 222.746094 C 159.324219 223.007812 160.148438 222.808594 159.929688 223.152344 C 159.480469 223.660156 158.570312 223.226562 158.652344 222.6875 C 159.003906 222.371094 159.273438 222.800781 159.597656 222.734375 C 158.878906 222.410156 158.125 221.832031 157.65625 220.859375 C 157.582031 220.148438 158.136719 219.484375 158.066406 218.941406 C 157.660156 219.199219 157.601562 218.75 157.34375 218.605469 C 157.226562 218.539062 157.050781 218.613281 156.914062 218.492188 C 155.257812 217.039062 156.539062 214.214844 157.757812 212.820312 C 159.136719 211.238281 160.359375 209.457031 161.78125 208.144531 C 162.949219 207.0625 164.628906 207.339844 165.726562 206.378906 C 166.953125 206.453125 168.042969 204.828125 169.253906 204.375 C 171.898438 204.171875 174.605469 203.4375 177.1875 203.761719 C 178.355469 203.175781 179.40625 203.597656 180.570312 203.011719 C 180.710938 203.257812 180.90625 203.046875 181.058594 203.195312 C 184.988281 202.113281 188.957031 202.363281 193.058594 198.101562 C 193.863281 196.585938 193.914062 194.777344 192.113281 193.621094 C 191.722656 193.894531 191.304688 194.425781 190.988281 194.058594 C 190.828125 193.789062 191.109375 193.566406 191.324219 193.339844 C 190.441406 193.300781 189.421875 193.136719 188.441406 193.578125 C 187.710938 193.90625 187.003906 194.71875 186.042969 195.140625 C 185.847656 195.226562 185.628906 195.160156 185.457031 195.265625 C 183.722656 196.304688 182.335938 198.179688 180.941406 197.597656 C 179.515625 198.101562 177.863281 197.984375 176.425781 198.792969 C 175.585938 199.265625 175.117188 199.28125 174.394531 199.382812 C 174.335938 199.339844 174.269531 199.347656 174.199219 199.425781 C 173.910156 198.839844 173.226562 199.257812 173.128906 198.792969 C 172.984375 198.945312 172.949219 199.160156 172.710938 199.125 C 171.558594 198.3125 170.234375 198.96875 169.097656 198.015625 C 168.816406 198.71875 167.410156 198.492188 167.734375 197.730469 C 167.171875 197.234375 166.496094 197.105469 166.222656 196.542969 C 165.800781 195.675781 166.582031 193.410156 167.894531 192.484375 C 168.851562 191.808594 170.054688 191.757812 170.820312 191.300781 C 171.808594 191.660156 174.519531 190.558594 174.933594 189.171875 C 175.183594 188.332031 174.414062 187.671875 174.050781 186.914062 C 173.480469 187.015625 173.207031 186.542969 172.703125 186.507812 C 172.640625 186.5 172 186.578125 172.257812 186.519531 C 170.132812 187.015625 167.605469 189.785156 165.5625 187.394531 C 164.6875 186.378906 164.277344 185.191406 163.722656 184.078125 C 164.144531 182.757812 164.480469 181.804688 164.960938 180.480469 C 164.585938 180.003906 164.605469 179.859375 164.644531 179.363281 C 163.390625 178.675781 162.816406 178.441406 161.660156 177.753906 C 161.402344 177.898438 161.785156 178.21875 161.421875 178.171875 C 161.121094 178.140625 161.421875 177.957031 161.214844 177.765625 C 160.761719 178.015625 160.363281 177.828125 159.960938 177.621094 C 159.273438 177.75 158.542969 178.210938 157.886719 178.015625 C 157.628906 177.773438 157.796875 177.585938 157.960938 177.390625 C 157.777344 177.132812 157.523438 177.511719 157.347656 177.195312 C 157.65625 176.734375 157.007812 176.757812 157.253906 176.359375 C 156.984375 176.511719 156.261719 175.910156 155.667969 175.796875 C 155.4375 175.535156 155.726562 175.339844 155.8125 175.113281 C 155.257812 173.980469 156.207031 172.726562 157.5625 172.019531 C 157.628906 171.78125 157.792969 171.714844 157.675781 171.589844 C 159.378906 171.195312 161.007812 169.519531 162.78125 167.988281 C 163.027344 167.984375 163.105469 168.039062 163.226562 167.976562 C 164.316406 166.824219 165.34375 166.402344 166.394531 165.234375 C 167.460938 165.140625 168.488281 163.984375 169.144531 163.394531 C 171.269531 161.472656 173.933594 160.132812 176.316406 158.382812 C 177.390625 159.023438 178.679688 159.035156 179.847656 159.105469 C 181.824219 159.226562 182.847656 159.625 184.695312 157.761719 C 186.527344 155.910156 187.164062 152.671875 186.753906 150.324219 C 186.671875 149.855469 186.683594 149.296875 186.589844 148.972656 C 186.277344 147.890625 185.445312 146.917969 185 146.253906 C 184.492188 145.492188 184.300781 144.6875 183.507812 143.800781 C 183.023438 143.257812 182.386719 143.179688 181.703125 142.957031 C 180.476562 142.5625 178.769531 142.058594 177.472656 142.789062 " fill-opacity="1" fill-rule="evenodd"/></g></g></g><g clip-path="url(#7d5d593cf6)"><g clip-path="url(#3b24511347)"><g clip-path="url(#ade51dc505)"><path fill="#05abc4" d="M 57.003906 196.101562 C 56.972656 196.113281 56.9375 196.121094 56.898438 196.125 C 56.933594 196.125 56.96875 196.121094 57.003906 196.101562 " fill-opacity="1" fill-rule="evenodd"/></g></g></g><g clip-path="url(#129ffaef91)"><g clip-path="url(#32cb33b25d)"><g clip-path="url(#9a85b3237f)"><path fill="#05abc4" d="M 54.65625 169.640625 C 54.6875 169.679688 54.773438 169.675781 54.726562 169.585938 C 54.425781 169.621094 54.171875 169.253906 53.847656 169.484375 C 53.484375 170.085938 54.472656 170.652344 54.886719 170.9375 C 55.382812 170.414062 54.335938 169.957031 54.65625 169.640625 " fill-opacity="1" fill-rule="evenodd"/></g></g></g><g clip-path="url(#95b8bf3212)"><g clip-path="url(#aa041b2107)"><g clip-path="url(#4d028239c9)"><path fill="#05abc4" d="M 101.769531 140.429688 C 101.582031 140.007812 101.824219 139.589844 101.914062 139.179688 C 101.765625 139.378906 101.703125 138.808594 101.554688 139.011719 C 101.621094 140.5 101.082031 142.25 101.785156 143.601562 C 102.015625 142.539062 102.625 141.667969 102.242188 140.738281 C 102.199219 140.632812 101.839844 140.585938 101.769531 140.429688 " fill-opacity="1" fill-rule="evenodd"/></g></g></g><g clip-path="url(#41df9c3693)"><g clip-path="url(#64cebc28eb)"><g clip-path="url(#0c2842b292)"><g clip-path="url(#e1be9c8036)"><path fill="#05abc4" d="M 154.683594 108.207031 C 154.535156 108.386719 154.507812 108.542969 154.296875 108.289062 C 154.425781 108.199219 154.375 108.085938 154.519531 108 C 154.574219 108.066406 154.628906 108.136719 154.683594 108.207031 Z M 154.71875 106.246094 C 154.542969 106.765625 154.042969 107.144531 153.796875 107.660156 C 153.054688 109.234375 153.289062 110.980469 153.042969 112.585938 C 152.800781 114.136719 152.070312 115.546875 151.839844 116.949219 C 152.472656 116.511719 152.0625 116.3125 152.667969 115.839844 C 152.886719 113.148438 154.9375 110.867188 155.253906 108.210938 C 155.324219 107.621094 155.289062 107.003906 155.332031 106.441406 C 155.421875 105.308594 157.121094 104.238281 156.039062 103.035156 C 154.359375 103.394531 155.054688 105.265625 154.71875 106.246094 " fill-opacity="1" fill-rule="evenodd"/></g></g></g></g><g clip-path="url(#bbe45c0739)"><g clip-path="url(#da37b465f6)"><g clip-path="url(#7cf0275a20)"><path fill="#05abc4" d="M 104.417969 150.5 C 104.550781 150.167969 104.476562 149.382812 104.101562 149.386719 C 104.457031 149.652344 103.996094 150.054688 104.417969 150.5 " fill-opacity="1" fill-rule="evenodd"/></g></g></g><g clip-path="url(#011b3d2dae)"><g clip-path="url(#e2186d2ec0)"><g clip-path="url(#f08fdefaae)"><path fill="#05abc4" d="M 159.597656 218.863281 C 159.507812 218.921875 159.339844 218.867188 159.390625 219.03125 C 159.59375 218.921875 160.132812 218.78125 160.128906 218.671875 C 159.925781 218.753906 159.757812 218.585938 159.558594 218.667969 C 159.585938 218.734375 159.664062 218.808594 159.597656 218.863281 " fill-opacity="1" fill-rule="evenodd"/></g></g></g><g clip-path="url(#ce64fe6438)"><g clip-path="url(#3033d28f0b)"><g clip-path="url(#2b031382b8)"><path fill="#05abc4" d="M 162.246094 217.898438 C 162.109375 218.085938 161.78125 217.992188 161.519531 218.132812 C 161.535156 218.527344 162.273438 218.277344 162.484375 218.160156 C 162.394531 218.171875 162.472656 217.746094 162.246094 217.898438 " fill-opacity="1" fill-rule="evenodd"/></g></g></g><g clip-path="url(#3646ec003b)"><g clip-path="url(#2b4d7f640c)"><g clip-path="url(#778b6060e6)"><path fill="#05abc4" d="M 162.527344 218.132812 C 162.515625 218.140625 162.5 218.148438 162.484375 218.160156 C 162.496094 218.160156 162.507812 218.148438 162.527344 218.132812 " fill-opacity="1" fill-rule="evenodd"/></g></g></g><g clip-path="url(#dca6c86ad2)"><g clip-path="url(#6ee68ba690)"><g clip-path="url(#d75373b765)"><path fill="#05abc4" d="M 181.691406 212.019531 C 180.238281 212.449219 178.726562 213.292969 177.429688 213.808594 C 177.484375 213.886719 177.601562 213.960938 177.554688 213.824219 C 179.414062 213.695312 180.996094 213.5625 183.027344 212.550781 C 182.683594 212.066406 181.996094 212.828125 181.875 212.101562 C 181.59375 212.238281 182.007812 212.457031 181.691406 212.589844 C 181.617188 212.503906 181.523438 212.5625 181.453125 212.433594 C 181.238281 212.128906 181.777344 212.308594 181.691406 212.019531 " fill-opacity="1" fill-rule="evenodd"/></g></g></g><g clip-path="url(#53d9e020c7)"><g clip-path="url(#967efb16de)"><g clip-path="url(#336861e2a0)"><path fill="#05abc4" d="M 190.75 223.140625 C 194.257812 222.691406 198.539062 221.132812 201.757812 219.523438 C 198.460938 219.882812 194.257812 220.847656 190.75 223.140625 " fill-opacity="1" fill-rule="evenodd"/></g></g></g><g clip-path="url(#4ed779c19c)"><g clip-path="url(#c7ffbf4997)"><g clip-path="url(#8a01f5b3ed)"><path fill="#05abc4" d="M 205.492188 217.925781 C 204.59375 218.140625 203.109375 218.390625 202.550781 219.234375 C 204.917969 218.789062 208.433594 217.734375 210.117188 216.300781 C 208.699219 217.144531 207.203125 216.832031 205.492188 217.925781 " fill-opacity="1" fill-rule="evenodd"/></g></g></g><g clip-path="url(#055dfa7274)"><g clip-path="url(#855e8d8c0c)"><g clip-path="url(#81de34ea85)"><path fill="#05abc4" d="M 222.546875 211.894531 C 222.476562 211.800781 222.621094 211.734375 222.578125 211.640625 C 222.203125 212.132812 221.449219 211.644531 221.097656 212.359375 C 222.035156 212.230469 222.96875 211.917969 223.660156 211.578125 C 223.316406 211.421875 222.746094 211.6875 222.546875 211.894531 " fill-opacity="1" fill-rule="evenodd"/></g></g></g><g clip-path="url(#ee06f29f59)"><g clip-path="url(#e59fb9c8f9)"><g clip-path="url(#d81e4d9fbb)"><path fill="#05abc4" d="M 194.507812 249.511719 C 196.335938 249.789062 198.0625 250.957031 200.027344 250.019531 C 200 249.953125 200.023438 249.890625 200.113281 249.839844 C 200.175781 249.71875 199.910156 249.5625 200.03125 249.449219 C 198.941406 248.65625 197.785156 249.242188 196.621094 249.3125 C 195.734375 249.363281 194.726562 248.871094 194.507812 249.511719 " fill-opacity="1" fill-rule="evenodd"/></g></g></g><g clip-path="url(#a0c80bea36)"><g clip-path="url(#93a736fd75)"><g clip-path="url(#e21568f8a1)"><path fill="#05abc4" d="M 51.71875 154.910156 C 51.054688 155.980469 52.460938 157.570312 53.570312 158.101562 C 53.5 157.011719 52.691406 155.195312 51.71875 154.910156 " fill-opacity="1" fill-rule="evenodd"/></g></g></g><g clip-path="url(#ece6d54059)"><g clip-path="url(#dce8ec6e1a)"><g clip-path="url(#3f0b7c809b)"><path fill="#05abc4" d="M 127.675781 293.007812 C 127.480469 293.152344 127.628906 293.234375 127.398438 293.230469 C 127.128906 293.003906 127.519531 292.695312 127.675781 293.007812 Z M 124.683594 293.109375 C 124.558594 294.128906 125.046875 295.222656 126.023438 296.371094 C 126.855469 296.75 128.179688 297.015625 129.082031 296.214844 C 129.664062 295.699219 130.046875 294.136719 129.734375 293.308594 C 129.398438 292.417969 128.574219 291.972656 127.988281 291.394531 C 126.78125 291.265625 125.367188 291.632812 124.683594 293.109375 " fill-opacity="1" fill-rule="evenodd"/></g></g></g><g fill="#ffffff" fill-opacity="1"><g transform="translate(147.414679, 270.095426)"><g><path d="M 74.40625 -22.6875 C 75.59375 -21.9375 76.222656 -21.113281 76.296875 -20.21875 C 76.359375 -19.445312 75.84375 -18.488281 74.75 -17.34375 L 74.59375 -17.3125 C 74.03125 -16.738281 73.539062 -16.34375 73.125 -16.125 L 70.5 -15.046875 C 67.570312 -13.953125 65.25 -13.210938 63.53125 -12.828125 C 61.582031 -12.398438 59.582031 -12.238281 57.53125 -12.34375 C 55.207031 -12.625 53.628906 -13.863281 52.796875 -16.0625 C 52.523438 -16.789062 51.769531 -18.664062 50.53125 -21.6875 C 49.195312 -24.65625 48.164062 -27.019531 47.4375 -28.78125 C 47 -29.820312 46.410156 -31.222656 45.671875 -32.984375 C 44.941406 -34.742188 44.316406 -36.300781 43.796875 -37.65625 C 43.179688 -38.875 42.710938 -39.960938 42.390625 -40.921875 C 42.023438 -42.078125 41.191406 -42.507812 39.890625 -42.21875 C 39.328125 -42.21875 38.457031 -42.085938 37.28125 -41.828125 C 35.988281 -41.546875 32.425781 -40.476562 26.59375 -38.625 L 20.90625 -36.6875 C 20.15625 -36.519531 19.773438 -35.695312 19.765625 -34.21875 C 19.660156 -34.195312 19.632812 -34.082031 19.6875 -33.875 L 19.53125 -28.40625 L 19.296875 -20.21875 C 19.222656 -17.476562 19.175781 -15.144531 19.15625 -13.21875 L 19.171875 -9.328125 C 19.148438 -8.304688 19.007812 -7.367188 18.75 -6.515625 C 18.175781 -4.015625 16.753906 -2.515625 14.484375 -2.015625 C 13.191406 -1.734375 12.03125 -1.867188 11 -2.421875 C 8.53125 -3.359375 6.429688 -3.632812 4.703125 -3.25 L 3.578125 -3 C 2.171875 -2.6875 1.050781 -2.894531 0.21875 -3.625 C -0.882812 -4.5 -1.472656 -5.890625 -1.546875 -7.796875 L -1.390625 -14.796875 L -1.3125 -15.140625 C -0.53125 -31.609375 0.25 -44.003906 1.03125 -52.328125 C 1.164062 -54.722656 1.492188 -58.359375 2.015625 -63.234375 L 3.21875 -76.90625 L 3.8125 -85.84375 C 4.351562 -94.113281 4.695312 -99.453125 4.84375 -101.859375 C 4.820312 -105.585938 5.265625 -109.472656 6.171875 -113.515625 C 7.441406 -119.117188 11.523438 -122.679688 18.421875 -124.203125 L 18.90625 -124.3125 C 19.769531 -124.5 20.484375 -124.597656 21.046875 -124.609375 C 22.234375 -124.878906 24.140625 -125.1875 26.765625 -125.53125 C 29.648438 -125.832031 31.710938 -124.703125 32.953125 -122.140625 L 35.375 -118.09375 L 37.015625 -115.25 C 37.992188 -113.414062 39.125 -110.601562 40.40625 -106.8125 C 41.144531 -104.5 41.960938 -102.363281 42.859375 -100.40625 C 45.046875 -95.570312 47.46875 -89.429688 50.125 -81.984375 C 52.925781 -74.910156 54.910156 -70.03125 56.078125 -67.34375 L 60.140625 -57.375 L 62.296875 -52.25 C 64.910156 -46.039062 67.457031 -39.085938 69.9375 -31.390625 L 71.28125 -27.609375 C 71.332031 -27.390625 71.429688 -27.1875 71.578125 -27 C 71.628906 -26.78125 71.675781 -26.566406 71.71875 -26.359375 C 72.40625 -24.796875 73.300781 -23.570312 74.40625 -22.6875 Z M 21.96875 -65.765625 C 21.90625 -65.523438 21.832031 -64.832031 21.75 -63.6875 C 21.582031 -62.394531 21.519531 -61.421875 21.5625 -60.765625 L 21.671875 -59.421875 C 21.816406 -59.335938 22.265625 -59.378906 23.015625 -59.546875 L 23.328125 -59.609375 C 24.109375 -59.671875 25.253906 -59.867188 26.765625 -60.203125 C 29.347656 -60.773438 31.40625 -61.453125 32.9375 -62.234375 C 33.695312 -62.398438 34.144531 -62.675781 34.28125 -63.0625 C 34.363281 -63.175781 34.320312 -63.617188 34.15625 -64.390625 C 33.0625 -67.316406 32.289062 -69.519531 31.84375 -71 L 28.640625 -80.140625 C 28.234375 -81.503906 27.046875 -84.347656 25.078125 -88.671875 L 23.4375 -92.203125 L 23.359375 -91.015625 L 22.4375 -69.765625 C 22.351562 -68.617188 22.195312 -67.285156 21.96875 -65.765625 Z M 21.96875 -65.765625 "/></g></g></g><g fill="#ffffff" fill-opacity="1"><g transform="translate(229.434487, 252.002059)"><g><path d="M 26.390625 -7.34375 C 15.347656 -5.03125 5.828125 -7.910156 -2.171875 -15.984375 C -5.054688 -18.847656 -5.300781 -22.019531 -2.90625 -25.5 C 0.207031 -29.8125 2.613281 -33 4.3125 -35.0625 C 5.5625 -36.570312 6.640625 -37.316406 7.546875 -37.296875 C 8.484375 -37.160156 9.585938 -36.273438 10.859375 -34.640625 C 11.347656 -33.953125 11.921875 -33.398438 12.578125 -32.984375 C 13.148438 -32.421875 14.019531 -31.816406 15.1875 -31.171875 C 16.238281 -30.492188 16.90625 -30.023438 17.1875 -29.765625 C 17.582031 -29.515625 18.101562 -29.457031 18.75 -29.59375 C 20.53125 -29.757812 22.082031 -30.664062 23.40625 -32.3125 C 24.757812 -33.84375 25.414062 -35.507812 25.375 -37.3125 C 25.3125 -41.15625 24.21875 -44.820312 22.09375 -48.3125 C 17.40625 -55.195312 12.503906 -60.734375 7.390625 -64.921875 C 2.078125 -69.515625 -2.082031 -73.515625 -5.09375 -76.921875 C -10.65625 -83.160156 -12.789062 -90.550781 -11.5 -99.09375 C -10.425781 -104.988281 -9 -109.035156 -7.21875 -111.234375 C -6.519531 -112.191406 -4.640625 -113.910156 -1.578125 -116.390625 C 1.390625 -118.859375 3.65625 -120.378906 5.21875 -120.953125 C 8.4375 -122.222656 12.0625 -122.960938 16.09375 -123.171875 C 20.257812 -123.296875 26.835938 -122.203125 35.828125 -119.890625 C 37.847656 -119.429688 38.742188 -117.648438 38.515625 -114.546875 C 38.453125 -112.835938 37.789062 -109.972656 36.53125 -105.953125 C 36.4375 -105.828125 36.175781 -105.207031 35.75 -104.09375 C 35.34375 -102.875 35.097656 -101.914062 35.015625 -101.21875 C 34.878906 -99.269531 33.8125 -98.46875 31.8125 -98.8125 C 31.226562 -98.914062 29.25 -99.441406 25.875 -100.390625 C 25.632812 -100.453125 25.144531 -100.628906 24.40625 -100.921875 C 23.664062 -101.210938 23.171875 -101.390625 22.921875 -101.453125 C 19.691406 -102.773438 17.132812 -102.320312 15.25 -100.09375 C 12.707031 -97.269531 11.847656 -94.25 12.671875 -91.03125 C 14.054688 -86.800781 16.929688 -82.453125 21.296875 -77.984375 C 22.054688 -77.148438 24.050781 -75.328125 27.28125 -72.515625 C 30.414062 -69.597656 32.75 -67.234375 34.28125 -65.421875 C 40.351562 -58.390625 44.191406 -50.976562 45.796875 -43.1875 L 46.828125 -38.5 C 47.410156 -35.351562 47.757812 -32.992188 47.875 -31.421875 C 48 -26.828125 46.519531 -22.257812 43.4375 -17.71875 C 40.269531 -13.070312 36.546875 -10.210938 32.265625 -9.140625 C 31.503906 -8.972656 30.382812 -8.675781 28.90625 -8.25 C 27.4375 -7.6875 26.597656 -7.382812 26.390625 -7.34375 Z M 26.390625 -7.34375 "/></g></g></g></svg>